<svg version="1.1" id="Layer_1" xmlns="http://www.w3.org/2000/svg" xmlns:xlink="http://www.w3.org/1999/xlink" x="0px" y="0px"
	 width="100%" viewBox="0 0 1024 1024" enable-background="new 0 0 1024 1024" xml:space="preserve">
<path fill="#000000" opacity="1.000000" stroke="none" 
	d="
M601.351929,802.533569 
	C573.439026,811.218079 545.211426,815.785583 516.427673,815.842590 
	C474.518890,815.925537 433.984009,808.534607 395.400696,791.602966 
	C333.460693,764.421570 285.209503,721.723145 250.936539,663.485901 
	C229.620392,627.265015 216.943588,588.025940 212.601913,546.179871 
	C203.603378,459.449799 227.215042,382.593750 283.925781,316.481934 
	C330.919434,261.698029 390.300903,227.362335 461.532715,214.781296 
	C532.814331,202.191452 600.100525,214.561844 662.737793,250.634171 
	C724.430725,286.162659 768.195984,337.601929 794.648621,403.586884 
	C804.650085,428.535065 810.556519,454.588470 813.522583,481.400146 
	C818.039368,522.228271 813.896729,562.141968 802.089294,601.285950 
	C787.818298,648.597412 762.845947,689.769531 728.287415,724.919739 
	C692.618591,761.199341 650.375305,787.123596 601.351929,802.533569 
M471.002197,783.414734 
	C502.735504,788.283508 534.386963,787.904724 565.837524,781.343445 
	C638.789856,766.124207 696.631531,727.391541 738.604980,666.301270 
	C780.600342,605.179016 794.425659,537.117065 781.602661,464.054230 
	C772.377014,411.488342 749.116394,365.557404 712.591187,326.687286 
	C672.040588,283.533264 622.538452,256.075592 564.400513,244.263535 
	C533.188721,237.922150 501.862579,237.492706 470.551910,242.676712 
	C417.261475,251.499847 370.607178,274.260468 330.292297,310.286499 
	C300.724304,336.708923 278.151306,368.137909 262.325745,404.323975 
	C243.191376,448.075745 236.336929,493.851257 241.171844,541.412415 
	C244.596329,575.099243 253.354111,607.324280 269.511322,637.018311 
	C313.205109,717.319824 379.995209,766.425171 471.002197,783.414734 
z"/>
<path fill="#000000" opacity="1.000000" stroke="none" 
	d="
M520.976746,547.394226 
	C503.576538,551.092529 486.645691,542.266418 480.212463,526.429810 
	C473.659485,510.298431 479.877075,491.213226 495.161102,482.026794 
	C498.752075,479.868439 499.726379,477.537872 499.717133,473.668488 
	C499.609375,428.509857 499.626404,383.350922 499.647888,338.192047 
	C499.652161,329.270172 504.224304,323.938507 511.944611,323.604462 
	C520.219055,323.246460 525.938110,328.443268 526.299744,336.796478 
	C526.450928,340.289429 526.334167,343.794159 526.334778,347.293518 
	C526.342712,389.119629 526.404358,430.945892 526.273682,472.771545 
	C526.260315,477.044830 527.091248,479.905273 531.304260,481.855103 
	C537.388123,484.670837 541.693909,489.618225 544.643799,495.593079 
	C545.849365,498.035095 547.434387,499.140137 550.104065,498.921326 
	C551.427612,498.812836 552.768616,498.915161 554.101685,498.923431 
	C592.922119,499.163605 631.742737,499.388184 670.562927,499.657745 
	C678.326965,499.711639 683.577637,504.654602 684.063293,512.148560 
	C684.474426,518.492554 679.268677,524.493774 672.337524,525.466675 
	C669.874634,525.812378 667.358704,525.893372 664.866516,525.898804 
	C640.537476,525.951477 616.208435,525.956238 591.879333,525.988159 
	C579.381714,526.004578 566.883972,526.038696 554.386475,526.091248 
	C552.788086,526.098022 551.190369,526.265137 548.564148,526.417664 
	C551.893616,529.569763 554.558472,531.980957 557.099854,534.515930 
	C580.927612,558.284302 604.733887,582.074219 628.547424,605.856873 
	C632.813843,610.117798 636.312439,614.701233 634.557861,621.279114 
	C631.686157,632.045349 619.576782,634.980896 611.290527,626.785034 
	C597.785339,613.427307 584.471313,599.876282 570.984009,586.500305 
	C558.798218,574.415222 546.327148,562.612915 534.324097,550.350952 
	C530.340393,546.281311 526.665527,544.276428 520.976746,547.394226 
M526.688171,507.946869 
	C522.984314,499.762024 515.567444,496.243835 508.165680,499.160522 
	C500.901703,502.022919 497.188934,510.183685 499.723541,517.716858 
	C502.023315,524.552063 509.923492,528.480286 517.220642,526.416931 
	C524.613953,524.326416 528.756165,516.744263 526.688171,507.946869 
z"/>
<path fill="#000000" opacity="1.000000" stroke="none" 
	d="
M417.999512,504.905426 
	C423.665405,504.904907 428.833466,504.813965 433.997101,504.925629 
	C440.405518,505.064178 444.397125,508.682831 444.277832,514.032471 
	C444.158539,519.381775 440.132507,523.085022 433.828918,523.103577 
	C404.332458,523.190552 374.835571,523.192322 345.338989,523.148315 
	C338.968597,523.138855 334.677734,519.120911 334.751068,513.617004 
	C334.819855,508.454071 338.961853,504.956635 345.507690,504.935638 
	C368.004974,504.863495 390.502563,504.901184 413.000061,504.897644 
	C414.499939,504.897400 415.999786,504.902313 417.999512,504.905426 
z"/>
<path fill="#000000" opacity="1.000000" stroke="none" 
	d="
M769.171143,523.533813 
	C766.724304,524.845886 764.490295,525.321777 762.102966,525.312317 
	C753.280823,525.277161 744.457642,525.371826 735.636414,525.277100 
	C728.167786,525.196899 722.952942,520.256348 722.854858,513.403442 
	C722.760437,506.801605 727.633240,501.301147 734.725281,501.020355 
	C744.197937,500.645264 753.700806,500.710541 763.180786,500.962402 
	C769.047607,501.118286 772.907410,504.414856 774.523376,509.857513 
	C776.214905,515.554688 774.032166,519.898865 769.171143,523.533813 
z"/>
<path fill="#000000" opacity="1.000000" stroke="none" 
	d="
M263.340698,525.290527 
	C255.240860,524.369873 250.477386,519.442383 250.774414,512.759399 
	C251.088928,505.682922 255.820282,501.141846 263.642120,500.954681 
	C272.441864,500.744110 281.253632,500.749817 290.054108,500.939911 
	C297.732635,501.105743 302.951477,506.315186 302.968414,513.353149 
	C302.984528,520.045837 297.309113,525.233154 289.714752,525.294678 
	C281.076660,525.364685 272.437500,525.301636 263.340698,525.290527 
z"/>
<path fill="#000000" opacity="1.000000" stroke="none" 
	d="
M514.551392,300.896545 
	C504.927826,300.574249 500.682587,296.356934 500.637970,287.439056 
	C500.596375,279.130280 500.563141,270.820465 500.650085,262.512421 
	C500.726532,255.210693 505.694641,250.102509 512.662048,249.947449 
	C519.599792,249.793045 525.154358,255.228668 525.279419,262.600159 
	C525.417480,270.740570 525.342773,278.885376 525.299194,287.027924 
	C525.257751,294.766510 522.564880,298.302887 514.551392,300.896545 
z"/>
<path fill="#000000" opacity="1.000000" stroke="none" 
	d="
M525.319336,759.848694 
	C525.223389,770.101624 520.775696,775.377136 512.661865,775.340210 
	C505.794861,775.308960 500.807220,770.465942 500.700928,763.390137 
	C500.568726,754.588867 500.593506,745.783264 500.693512,736.981079 
	C500.777496,729.590027 505.723816,724.703674 512.851929,724.718933 
	C519.841492,724.734009 525.094055,729.742798 525.270935,736.948608 
	C525.454285,744.418579 525.316345,751.896545 525.319336,759.848694 
z"/>
</svg>