<svg version="1.1" id="Layer_1" xmlns="http://www.w3.org/2000/svg" xmlns:xlink="http://www.w3.org/1999/xlink" x="0px" y="0px"
	 width="100%" viewBox="0 0 1024 1024" enable-background="new 0 0 1024 1024" xml:space="preserve">
<path fill="#000000" opacity="1.000000" stroke="none" 
	d="
M488.768402,705.093994 
	C531.853638,711.382385 573.613098,708.674622 613.690063,691.689819 
	C637.819763,681.463501 658.862305,666.765137 675.177368,645.925171 
	C677.983215,642.341064 681.226440,640.578796 685.834900,640.708618 
	C701.320496,641.145142 716.814026,641.299866 732.299805,641.730469 
	C740.306702,641.953186 744.371765,648.457458 740.753174,655.603149 
	C729.846802,677.139893 714.820190,695.389404 696.419434,711.020264 
	C657.255798,744.288391 611.459045,761.741028 560.928833,766.937805 
	C514.781860,771.683899 469.317871,767.537354 425.862762,750.311890 
	C360.708252,724.484741 316.977020,678.160767 295.708038,611.143433 
	C288.373260,588.031982 284.670288,564.286072 283.491882,540.025574 
	C281.591827,500.909149 286.338196,462.731323 300.872650,426.394745 
	C332.636230,346.984894 390.211060,296.887115 474.146210,278.754608 
	C522.605347,268.285980 570.692749,271.547791 617.044861,289.496979 
	C683.455261,315.213501 723.509827,363.554047 736.296448,433.721100 
	C745.374939,483.539368 738.619080,531.391968 714.169739,575.928345 
	C692.481873,615.434631 660.350708,642.488586 615.563904,652.638062 
	C599.477051,656.283630 583.225342,657.026855 567.129028,652.346130 
	C553.560608,648.400452 544.223816,639.804321 539.528931,625.762207 
	C535.741089,629.008972 532.401855,631.915527 529.016052,634.766724 
	C491.832428,666.079041 434.493805,662.516113 401.944519,626.694702 
	C387.091614,610.348694 379.597778,590.593933 376.832489,568.959290 
	C371.788849,529.499695 378.348389,491.949005 396.631927,456.654297 
	C412.767609,425.505646 435.234497,400.085144 467.773895,385.609619 
	C501.761383,370.489960 535.802917,369.741608 568.731567,389.558502 
	C569.283447,389.890656 569.932861,390.060547 570.426758,390.261383 
	C571.981628,389.705444 571.904541,388.324646 572.183594,387.291962 
	C573.516724,382.357422 576.970947,380.109344 581.759705,380.074860 
	C597.589966,379.960846 613.424988,379.834595 629.251038,380.117126 
	C637.387146,380.262360 640.612366,384.734711 639.124878,393.262695 
	C636.495117,408.339905 633.621338,423.374817 630.809326,438.419922 
	C622.402710,483.397675 613.972473,528.371033 605.573914,573.350281 
	C605.238586,575.146240 605.198914,576.995605 604.909058,578.802063 
	C603.594421,586.995178 606.799072,590.221863 614.958984,588.360168 
	C628.216797,585.335449 638.257996,577.252319 646.860291,567.166504 
	C661.392578,550.128113 669.601501,530.110474 674.077026,508.418304 
	C680.077942,479.332703 679.558838,450.438995 669.882996,422.197449 
	C656.461060,383.022003 629.028687,357.385071 590.256287,344.525848 
	C532.703674,325.437927 477.164734,330.462616 425.256744,362.766693 
	C392.792236,382.970459 371.215332,412.489563 358.514313,448.211975 
	C341.063690,497.292877 339.934784,547.015808 355.941406,596.706482 
	C370.997894,643.447571 402.518219,675.039612 447.537689,693.640625 
	C460.668427,699.065979 474.307709,702.768921 488.768402,705.093994 
M614.701416,336.721100 
	C648.029968,353.752960 671.877014,379.299438 684.674316,414.735626 
	C693.957947,440.442261 696.190674,466.959076 693.285217,493.967285 
	C690.221130,522.449585 681.561890,549.000061 664.259399,572.151733 
	C652.658813,587.673828 638.596252,600.190979 618.963806,604.680115 
	C598.595215,609.337463 585.912231,597.706299 588.352966,576.989685 
	C589.153137,570.198486 590.432678,563.519653 591.690796,556.822388 
	C599.301941,516.306458 606.927551,475.793243 614.540710,435.277710 
	C616.866028,422.903046 619.167603,410.523865 621.686523,397.041443 
	C613.654541,397.041443 606.234375,397.051239 598.814270,397.039124 
	C587.946594,397.021423 587.946594,397.014740 585.372925,407.482605 
	C583.218140,416.246613 576.247437,418.336975 569.878967,411.757568 
	C556.134094,397.557495 538.849487,392.089020 519.809937,391.445801 
	C491.442108,390.487396 466.404297,400.011322 445.970184,419.270691 
	C399.942261,462.652557 383.649414,516.663635 395.741608,577.964539 
	C408.674622,643.527771 481.717957,655.889648 520.877930,619.906433 
	C526.804993,614.460144 532.118652,608.572937 536.739197,601.994080 
	C538.998779,598.776794 542.173584,596.970093 546.254944,598.163940 
	C550.205322,599.319397 552.270569,602.019775 552.418091,606.253906 
	C552.498840,608.571106 553.046326,610.868591 553.305176,613.183655 
	C554.824341,626.771790 562.805420,635.322510 576.361755,637.686768 
	C586.977173,639.538086 597.577576,639.164734 608.138855,637.147949 
	C648.109375,629.515381 676.987000,606.374695 697.278076,572.084229 
	C721.527283,531.104858 727.869812,486.416443 720.587585,440.001678 
	C709.943237,372.158295 671.021301,326.873352 606.875305,303.370361 
	C567.550354,288.961731 526.888550,286.492096 485.777313,293.423279 
	C424.539917,303.747589 375.819122,334.544739 340.634827,385.672791 
	C314.276062,423.976013 301.919067,467.117859 300.108765,513.441162 
	C298.715729,549.086243 302.725525,583.933594 315.309570,617.489014 
	C335.725525,671.928223 372.957458,710.582581 426.565216,732.631287 
	C482.849579,755.780823 540.931519,757.663757 599.512146,742.761475 
	C640.149902,732.423584 675.371399,712.240479 703.585632,680.734497 
	C709.529419,674.097290 715.035828,667.080872 720.001648,658.276917 
	C710.687927,657.953125 702.427673,657.840942 694.194763,657.307312 
	C689.961548,657.033020 687.058289,658.430542 684.256653,661.604614 
	C669.644409,678.159363 652.446777,691.605774 632.603516,701.182800 
	C574.854614,729.054321 514.996704,732.152893 454.193207,713.492004 
	C405.935028,698.681274 369.953735,668.321716 348.264374,622.387878 
	C330.466095,584.694580 326.203278,544.582214 329.498596,503.402405 
	C332.043274,471.602844 340.433990,441.530518 356.067932,413.642303 
	C377.455231,375.490997 408.210510,347.815918 448.999481,331.686035 
	C477.422302,320.446350 506.900055,315.877136 537.510803,317.497192 
	C564.314331,318.915741 589.883301,324.588806 614.701416,336.721100 
z"/>
<path fill="#000000" opacity="1.000000" stroke="none" 
	d="
M510.765320,423.392975 
	C529.178894,420.956207 545.552063,423.672699 557.507507,438.913116 
	C564.522278,447.855377 567.619202,458.559052 568.113708,469.630219 
	C569.897705,509.571594 559.314758,546.045898 535.758850,578.481934 
	C528.243469,588.830383 518.948181,597.479065 507.152893,602.869568 
	C477.086700,616.610229 447.366913,601.444885 439.687195,568.654236 
	C433.754944,543.324951 437.574860,518.697754 445.266632,494.462738 
	C451.750793,474.032654 461.655823,455.497498 477.643951,440.726959 
	C486.998840,432.084503 497.657745,425.863342 510.765320,423.392975 
M551.127625,465.382568 
	C548.098694,449.165100 540.221191,440.671844 527.132141,439.316772 
	C513.601990,437.915985 501.701019,441.856415 491.486237,450.564850 
	C481.341553,459.213531 473.705963,469.861237 468.004578,481.924988 
	C458.763306,501.478943 454.006714,522.146790 453.561981,543.663818 
	C453.299316,556.372681 454.846863,568.973083 462.476440,579.920776 
	C468.739716,588.908020 480.283295,593.383545 490.992493,591.163452 
	C502.894928,588.695862 511.979370,581.806641 519.204956,572.589661 
	C543.687378,541.359741 554.137329,505.765472 551.127625,465.382568 
z"/>
</svg>