<svg version="1.1" id="Layer_1" xmlns="http://www.w3.org/2000/svg" xmlns:xlink="http://www.w3.org/1999/xlink" x="0px" y="0px"
	 width="100%" viewBox="0 0 1024 1024" enable-background="new 0 0 1024 1024" xml:space="preserve">
<path fill="#000000" opacity="1.000000" stroke="none" 
	d="
M762.568909,546.390503 
	C755.862915,582.706909 740.513611,614.804382 719.466370,644.278076 
	C689.478882,686.271179 650.876953,718.937683 607.572998,746.391357 
	C579.511902,764.181458 550.080688,779.356384 519.584839,792.513550 
	C515.732544,794.175598 512.076782,795.002563 508.052887,793.269226 
	C444.154816,765.744385 385.044250,730.855896 336.183197,680.497375 
	C305.845734,649.230103 282.280823,613.604126 269.265106,571.651489 
	C263.123474,551.855713 259.551025,531.625122 259.619507,510.752136 
	C259.801544,455.257355 259.687927,399.761536 259.689270,344.266144 
	C259.689545,331.579071 261.946259,329.350739 274.706696,327.533813 
	C326.856995,320.108368 377.517548,307.128754 425.860718,285.915436 
	C447.237244,276.535278 468.231262,266.342987 486.787170,251.877869 
	C493.233765,246.852463 499.210266,241.321747 504.532074,235.058914 
	C508.899017,229.919846 515.416504,229.499039 519.808289,234.316650 
	C541.838867,258.482971 570.276245,272.716492 599.449158,285.670868 
	C647.724487,307.107788 698.511047,319.676941 750.588623,327.474731 
	C751.246399,327.573242 751.913940,327.607147 752.577393,327.666595 
	C762.689453,328.572876 766.219299,332.331604 766.216797,342.264648 
	C766.207642,378.094971 766.184998,413.925262 766.169678,449.755585 
	C766.161072,469.753906 766.093689,489.752502 766.174194,509.750488 
	C766.223328,521.953491 764.824951,533.993896 762.568909,546.390503 
M349.671722,663.828857 
	C363.200287,678.156128 377.921234,691.157288 393.528473,703.163635 
	C427.238464,729.096008 464.106903,749.662048 502.451660,767.835205 
	C509.535858,771.192688 515.136780,771.562622 522.420288,768.127197 
	C563.994080,748.518250 603.975098,726.349670 639.713684,697.188293 
	C676.150085,667.457520 706.825500,632.993347 726.530762,589.702515 
	C736.765747,567.217102 744.136841,543.742371 744.461670,519.033630 
	C745.188599,463.726624 744.699402,408.403992 744.817810,353.087982 
	C744.825928,349.312805 743.504761,347.826477 739.811279,347.270538 
	C700.373962,341.334808 661.724548,332.033569 624.280029,318.307922 
	C585.398193,304.055328 547.435181,287.823151 515.449768,260.496338 
	C513.296448,258.656708 511.897064,258.966614 509.997650,260.827240 
	C503.542542,267.150391 496.180725,272.347656 488.582886,277.172546 
	C460.169128,295.216156 429.560669,308.616760 397.890961,319.733246 
	C362.464050,332.168518 326.120819,340.974792 289.102234,347.081512 
	C281.163239,348.391144 281.180115,348.356140 281.178955,356.154114 
	C281.171204,407.971436 281.232239,459.788940 281.094330,511.605927 
	C281.047394,529.241211 283.797913,546.389038 288.867859,563.206787 
	C300.469849,601.692261 322.189545,634.097595 349.671722,663.828857 
z"/>
<path fill="#000000" opacity="1.000000" stroke="none" 
	d="
M318.670227,571.162415 
	C310.455109,549.196472 306.745697,526.872559 306.823914,503.807617 
	C306.973602,459.647491 306.867065,415.486481 306.864532,371.325836 
	C306.863983,361.338806 307.774536,360.288452 317.541443,358.881775 
	C368.134369,351.595032 416.811981,337.854584 462.927795,315.563019 
	C478.857574,307.862885 494.177216,299.106934 508.218872,288.262726 
	C511.108673,286.030945 514.018005,285.759003 516.932129,287.923706 
	C561.878845,321.310669 613.549072,338.752716 667.256348,351.376190 
	C681.843079,354.804749 696.625671,357.198669 711.410950,359.530853 
	C716.282959,360.299316 718.348999,362.666138 718.343689,367.499359 
	C718.288025,418.325653 718.948547,469.164093 718.015625,519.973511 
	C717.516052,547.179504 708.199402,572.523010 695.239807,596.365295 
	C676.539490,630.769226 650.105591,658.491821 619.680847,682.614624 
	C588.327148,707.473999 554.051636,727.584961 517.840698,744.502380 
	C514.540039,746.044434 511.742645,746.321655 508.403717,744.735229 
	C456.865204,720.247375 409.032349,690.371155 369.206329,648.908081 
	C347.518555,626.328857 330.121887,600.890991 318.670227,571.162415 
M607.316467,676.804260 
	C632.515198,657.322510 655.137451,635.311523 673.233765,608.956543 
	C692.669678,580.650757 705.590393,549.622559 706.367249,515.082397 
	C707.401245,469.108459 706.597290,423.093567 706.647949,377.096375 
	C706.652588,372.888000 705.092773,370.898010 700.712158,370.177429 
	C673.428467,365.689545 646.490295,359.661865 620.116272,351.260956 
	C583.457947,339.584198 548.173828,324.943451 516.346375,302.923187 
	C513.826965,301.180084 512.051758,301.384155 509.663422,303.011963 
	C498.500183,310.620453 486.844757,317.417542 474.777496,323.493927 
	C427.492218,347.304199 377.226288,361.620575 325.194214,370.198792 
	C320.701691,370.939484 319.165283,372.600494 319.180237,377.242432 
	C319.324158,421.906006 319.279602,466.570404 319.184570,511.234344 
	C319.165009,520.435425 320.023468,529.526062 321.822235,538.515564 
	C329.513367,576.952637 349.041962,609.074890 375.272400,637.460510 
	C413.089417,678.384644 459.504089,707.161743 509.032349,731.479919 
	C512.031128,732.952332 514.582397,732.670410 517.527161,731.238342 
	C548.927307,715.967834 578.910095,698.374268 607.316467,676.804260 
z"/>
<path fill="#000000" opacity="1.000000" stroke="none" 
	d="
M559.096069,452.075409 
	C572.138000,486.523560 572.484375,520.526672 556.739319,553.694092 
	C546.860229,574.504639 524.136841,584.980774 501.309052,581.788025 
	C478.918091,578.656311 463.904022,566.269348 456.351715,545.593140 
	C445.208710,515.086731 445.263733,484.124939 457.405487,453.914612 
	C466.512024,431.256287 484.737335,420.466034 508.783997,420.268402 
	C531.895264,420.078491 548.969727,430.490448 559.096069,452.075409 
M537.626526,476.840302 
	C536.462036,471.465668 535.067749,466.161804 532.486084,461.260162 
	C527.215576,451.253387 519.259460,445.665985 507.594696,446.264496 
	C496.259644,446.846100 488.717987,452.825775 484.153259,462.907288 
	C477.360321,477.910004 476.785889,493.822998 477.705048,509.862885 
	C478.335052,520.857605 479.978149,531.700745 485.399658,541.575195 
	C493.207581,555.796143 510.670135,560.346191 523.472595,551.404297 
	C530.077026,546.791443 533.550293,539.989441 535.734985,532.505676 
	C541.015198,514.418030 540.817993,496.100677 537.626526,476.840302 
z"/>
<path fill="#000000" opacity="1.000000" stroke="none" 
	d="
M427.259094,490.000061 
	C427.245575,517.661438 427.235046,544.822876 427.217224,571.984253 
	C427.212433,579.280945 427.202240,579.286316 419.691895,579.303223 
	C414.692902,579.314453 409.675720,579.043762 404.700012,579.385132 
	C399.970703,579.709656 398.758209,577.760986 398.773590,573.299622 
	C398.902924,535.807373 398.849548,498.314484 398.808777,460.821808 
	C398.806702,458.905151 399.387146,456.842346 397.722198,454.638733 
	C387.722595,459.584930 377.855865,464.967102 366.537933,469.004486 
	C365.610382,460.030121 365.904602,451.806885 366.367096,443.591736 
	C366.475189,441.671356 368.343750,441.033173 369.786560,440.253204 
	C379.751129,434.866699 389.715912,429.480133 399.715790,424.159698 
	C404.095581,421.829468 408.887665,422.983429 413.487122,422.930054 
	C427.268677,422.770172 427.263702,422.865723 427.259308,436.510162 
	C427.253601,454.173462 427.258820,471.836731 427.259094,490.000061 
z"/>
<path fill="#000000" opacity="1.000000" stroke="none" 
	d="
M638.800415,516.503052 
	C636.228149,523.179565 637.701233,529.852173 637.467224,536.427063 
	C637.189209,544.237122 637.407593,544.246033 629.662476,544.247375 
	C626.665222,544.247925 623.660278,544.105469 620.672729,544.273926 
	C617.155396,544.472351 615.944519,542.846375 616.013855,539.511780 
	C616.138611,533.519775 615.886353,527.516357 616.131348,521.531616 
	C616.302307,517.354004 614.615051,515.924194 610.562317,516.061890 
	C604.408875,516.270935 598.239502,515.979309 592.082397,516.126404 
	C588.239197,516.218262 586.599548,514.695496 586.800171,510.809784 
	C586.997437,506.989655 586.972717,503.148468 586.839905,499.323700 
	C586.722961,495.955536 588.000000,494.509827 591.507141,494.618469 
	C597.495728,494.803955 603.494507,494.667969 609.489014,494.656921 
	C615.982178,494.644989 615.995972,494.640015 616.019775,487.912415 
	C616.038635,482.584137 616.098450,477.254059 615.987183,471.927948 
	C615.912292,468.338593 617.413269,466.767151 621.058594,466.911560 
	C625.048279,467.069641 629.060242,467.108459 633.042908,466.870941 
	C636.693420,466.653259 637.610962,468.280640 637.469360,471.621155 
	C637.243896,476.940674 637.375000,482.275421 637.360413,487.603729 
	C637.341309,494.569550 637.343384,494.581512 644.082825,494.609497 
	C650.243774,494.635040 656.407715,494.747925 662.564636,494.593597 
	C665.972534,494.508240 667.478638,495.750366 667.266724,499.236816 
	C667.095337,502.056824 667.242798,504.896088 667.245605,507.726807 
	C667.253906,516.052124 667.253113,516.004333 659.139709,516.032227 
	C652.486633,516.055115 645.833923,516.209473 638.800415,516.503052 
z"/>
</svg>