<svg version="1.1" id="Layer_1" xmlns="http://www.w3.org/2000/svg" xmlns:xlink="http://www.w3.org/1999/xlink" x="0px" y="0px"
	 width="100%" viewBox="0 0 1024 1024" enable-background="new 0 0 1024 1024" xml:space="preserve">
<path fill="#000000" opacity="1.000000" stroke="none" 
	d="
M409.861755,243.771027 
	C444.871307,224.976471 481.917847,215.484940 521.203064,218.107544 
	C600.442078,223.397354 660.207520,260.853149 699.910339,329.741760 
	C716.656982,358.799072 724.752380,390.475494 727.421387,423.789551 
	C730.303772,459.767334 722.726257,493.952789 710.747620,527.453308 
	C692.181396,579.377014 664.329956,626.184143 631.520264,670.206726 
	C608.989502,700.437622 584.390442,728.886108 557.522644,755.360352 
	C551.342529,761.450012 544.863220,767.200317 538.085815,772.591553 
	C520.473572,786.601379 500.914124,786.220947 484.161896,771.138794 
	C419.930511,713.311096 367.990173,646.105103 330.249878,568.186646 
	C316.343353,539.475159 304.795471,509.885223 299.352448,478.265259 
	C287.489746,409.351807 303.846832,347.836395 348.407684,293.972168 
	C365.471313,273.346069 385.991425,256.746948 409.861755,243.771027 
M619.629333,649.156311 
	C647.695740,609.599976 671.920898,567.961060 688.756592,522.275085 
	C701.401672,487.961334 708.834106,452.796173 704.451782,416.104950 
	C699.592651,375.422241 684.899292,338.598633 657.252014,307.902679 
	C605.560486,250.511047 541.628235,228.748535 466.099243,246.298370 
	C412.933868,258.651825 373.223633,290.630066 345.246735,337.149384 
	C323.513184,373.287415 315.329163,412.812317 318.560608,454.591217 
	C320.909271,484.956696 330.498016,513.589233 342.519562,541.347107 
	C365.467072,594.333191 396.454315,642.343018 433.595825,686.451477 
	C453.578156,710.182007 474.458893,733.075195 497.905273,753.461914 
	C508.310394,762.509338 515.216858,762.266052 525.741150,753.502563 
	C534.456177,746.245667 542.708618,738.471069 550.641541,730.388245 
	C575.416687,705.145081 598.469727,678.420471 619.629333,649.156311 
z"/>
<path fill="#000000" opacity="1.000000" stroke="none" 
	d="
M602.793213,348.219727 
	C620.638611,367.123688 632.233398,388.884369 636.607483,414.240509 
	C643.402344,453.630005 634.435242,489.237030 608.706421,519.753967 
	C582.716614,550.580383 548.821228,565.628052 508.436798,565.107666 
	C457.111237,564.446472 407.336914,527.643738 391.777832,478.717377 
	C375.951874,428.951935 386.790070,384.816254 422.533569,347.345306 
	C443.604126,325.256409 470.284515,313.172150 500.916046,310.708862 
	C540.461731,307.528656 574.229980,320.378906 602.793213,348.219727 
M409.831421,459.709259 
	C422.984711,518.294006 480.887238,553.968506 539.013550,539.008972 
	C585.876892,526.948120 622.927673,480.055756 615.301819,423.348297 
	C607.470520,365.112976 554.720154,327.420105 501.744293,333.114624 
	C472.550690,336.252716 448.614807,349.246094 430.552917,372.067993 
	C410.364441,397.576874 403.081299,426.702240 409.831421,459.709259 
z"/>
</svg>