<svg version="1.1" id="Layer_1" xmlns="http://www.w3.org/2000/svg" xmlns:xlink="http://www.w3.org/1999/xlink" x="0px" y="0px"
	 width="100%" viewBox="0 0 1024 1024" enable-background="new 0 0 1024 1024" xml:space="preserve">
<path fill="#000000" opacity="1.000000" stroke="none" 
	d="
M1.000000,887.468628 
	C65.242126,887.011658 129.484253,887.030579 193.726379,887.014282 
	C197.069946,887.013428 199.421173,887.360962 199.406555,891.778870 
	C199.260529,935.881531 199.271713,979.984619 199.119263,1024.543823 
	C133.086029,1025.000000 67.172058,1025.000000 1.000000,1025.000000 
	C1.000000,979.312744 1.000000,933.625061 1.000000,887.468628 
M152.248856,960.422180 
	C148.428650,961.548157 146.041412,964.301575 144.611511,967.775635 
	C141.588455,975.120300 141.247498,982.632385 144.167145,990.108948 
	C146.401779,995.831238 150.535721,998.888306 155.250732,998.583435 
	C159.775146,998.290955 163.995422,994.379028 165.527374,988.981445 
	C167.143234,983.288513 167.255463,977.445435 166.415771,971.680969 
	C165.201965,963.348083 161.087677,960.063171 152.248856,960.422180 
M143.413055,913.848755 
	C137.628876,911.100891 132.027222,911.162415 127.185936,915.656982 
	C121.337120,921.087097 121.200172,928.020325 123.195007,935.077393 
	C124.553467,939.883118 127.720947,943.139526 133.009369,943.794739 
	C138.691544,944.498718 143.620117,943.326172 147.070740,938.325439 
	C151.985840,931.202454 150.583206,920.064270 143.413055,913.848755 
M156.387222,935.016174 
	C157.007797,937.805725 155.221344,941.191223 158.463943,943.775696 
	C160.763458,940.467468 159.521790,937.071594 159.726364,933.925110 
	C159.946503,930.539490 161.594955,929.606995 164.634460,930.093201 
	C168.803680,930.759949 170.147217,933.817383 171.110214,937.381714 
	C171.730728,939.678467 171.389603,942.755493 175.206818,943.546265 
	C175.620041,937.751892 173.486771,933.088013 170.449081,928.748596 
	C173.913406,925.636841 176.890701,922.607361 174.827469,917.807678 
	C172.777954,913.039917 168.506989,912.407776 164.029877,912.295044 
	C163.033035,912.269897 162.032822,912.360229 161.036743,912.324890 
	C157.679443,912.205872 156.232452,913.741821 156.320328,917.151428 
	C156.466003,922.803589 156.372635,928.462036 156.387222,935.016174 
M26.124083,974.522339 
	C26.129055,980.187195 26.106083,985.852234 26.158298,991.516663 
	C26.171648,992.964661 25.866337,995.074158 27.669935,995.345093 
	C33.099865,996.160889 38.549950,995.973145 43.940193,994.687378 
	C41.088814,992.448059 37.925415,993.095764 34.922974,993.138611 
	C29.106951,993.221436 30.025114,989.140747 29.762527,985.517029 
	C29.473886,981.533508 30.798323,979.644165 35.078678,979.790894 
	C37.409561,979.870789 40.254292,981.044128 42.581490,978.102539 
	C39.717609,976.606140 37.030243,977.135925 34.493580,977.197876 
	C30.191160,977.302979 29.737423,974.739685 29.713610,971.346313 
	C29.689623,967.927979 30.123678,965.539246 34.483955,965.595764 
	C37.402107,965.633545 40.679420,966.785034 43.465481,964.392090 
	C41.040302,962.398438 41.040302,962.398438 37.712257,962.377136 
	C26.188202,962.303345 26.188202,962.303345 26.124083,974.522339 
M51.023544,978.503967 
	C51.057068,983.328125 51.063110,988.152771 51.143826,992.976135 
	C51.163521,994.153137 51.398045,995.470459 52.963192,995.453735 
	C54.555119,995.436707 54.602871,994.092896 54.692181,992.922241 
	C54.742725,992.259888 54.807835,991.580017 54.717705,990.928528 
	C53.959480,985.449341 55.155006,982.368896 61.853447,982.354126 
	C67.430717,982.341919 70.926147,977.136841 70.672882,971.566956 
	C70.436478,966.367920 67.086479,963.030151 61.289433,962.419983 
	C59.313835,962.212158 57.300083,962.392639 55.305805,962.330322 
	C52.388237,962.239197 51.026035,963.602722 51.056541,966.528259 
	C51.094696,970.187683 51.029701,973.848206 51.023544,978.503967 
M82.100983,993.132996 
	C80.268066,993.214172 78.587044,990.919861 76.621017,992.669617 
	C76.264603,994.863403 77.821648,995.192993 79.237114,995.687073 
	C82.342232,996.771118 85.434113,996.539429 88.543465,995.701172 
	C92.400970,994.661255 95.095413,992.449158 95.664803,988.327271 
	C96.226067,984.263916 94.566483,981.179077 90.981209,979.224976 
	C88.797035,978.034485 86.471161,977.103027 84.292900,975.902893 
	C81.650299,974.447021 79.603836,972.401978 80.617386,969.094116 
	C81.680748,965.623596 84.642189,965.065002 87.826881,965.122742 
	C89.677010,965.156311 91.506149,966.874939 93.292297,965.412781 
	C93.643448,964.502380 93.507362,963.853088 92.920074,963.427124 
	C88.916473,960.522827 80.251472,962.272095 77.705070,966.476562 
	C74.906082,971.097839 76.821190,976.235168 82.453461,979.158691 
	C83.484093,979.693726 84.554657,980.152405 85.611076,980.637024 
	C89.062500,982.220398 92.555000,984.112122 91.608536,988.610046 
	C90.649750,993.166687 86.810455,993.543884 82.100983,993.132996 
M60.027119,928.693420 
	C61.406105,928.484009 63.100822,929.228699 63.997803,927.360107 
	C62.904076,925.474609 61.049629,926.157837 59.533642,926.175049 
	C55.670357,926.218933 52.496738,926.528381 52.467930,920.697021 
	C52.438282,914.695068 55.682678,914.851807 59.771877,914.892822 
	C61.496204,914.910156 63.687084,915.625610 65.143013,913.034729 
	C60.853237,911.759460 56.882706,912.584351 52.988907,912.354858 
	C50.207947,912.190918 49.121109,913.580994 49.148083,916.279358 
	C49.226330,924.107666 49.194992,931.937073 49.247669,939.765686 
	C49.257553,941.234192 49.086086,943.276306 51.007206,943.408203 
	C55.981583,943.749817 61.024891,944.271240 67.344788,942.856140 
	C63.283749,940.470642 60.256393,941.528625 57.430370,941.202332 
	C55.813549,941.015686 54.034275,941.308777 53.043373,939.497803 
	C50.265198,934.420349 53.414860,928.865845 60.027119,928.693420 
M31.500916,937.188171 
	C29.700768,936.336548 29.768545,934.471130 29.282068,932.952637 
	C27.458950,927.261963 25.727163,921.542114 23.942511,915.839050 
	C23.473589,914.340454 23.435215,912.359009 20.961428,912.818970 
	C19.796324,914.242615 20.357967,915.680481 20.805683,917.090149 
	C23.217024,924.682373 25.652212,932.267090 28.062557,939.859680 
	C28.619318,941.613464 28.981968,943.618591 31.397263,943.535461 
	C33.733086,943.455139 34.123207,941.408630 34.718906,939.714050 
	C37.416065,932.041443 40.102238,924.364807 42.729332,916.668030 
	C43.130390,915.492981 44.051250,914.248779 42.816563,912.752930 
	C39.876656,912.085083 39.998482,914.766235 39.380997,916.344421 
	C36.729115,923.121887 35.309349,930.337219 31.500916,937.188171 
M121.996025,966.312256 
	C125.572968,966.028320 124.414520,968.871460 124.439262,970.452820 
	C124.561119,978.241272 124.424599,986.033569 124.416275,993.824463 
	C124.414497,995.489868 124.361916,997.447388 126.748199,997.421631 
	C128.866882,997.398621 128.781128,995.580566 128.783829,994.102539 
	C128.802383,983.990356 128.793793,973.878235 128.764343,963.766113 
	C128.760544,962.461670 128.844055,961.032532 127.120522,960.560608 
	C124.980270,959.974548 118.512436,964.164307 117.647339,966.714539 
	C117.913910,966.886108 118.209099,967.235596 118.442055,967.198120 
	C119.410034,967.042480 120.359261,966.770264 121.996025,966.312256 
M75.119781,916.623535 
	C69.873886,922.750305 69.419029,929.574585 72.644714,936.645447 
	C75.333542,942.539612 80.672165,944.478088 86.662384,944.207764 
	C88.888351,944.107361 92.434128,945.103821 93.514023,940.524292 
	C84.942154,942.291748 76.918060,941.999207 74.944420,932.179932 
	C72.027153,917.665955 80.625908,913.579102 94.589813,915.270264 
	C88.734146,910.631409 81.897346,911.374573 75.119781,916.623535 
M106.604454,912.365906 
	C103.870201,912.747986 100.672096,911.412170 98.153084,913.713013 
	C99.222069,915.345093 100.075882,915.327087 100.882507,915.171021 
	C105.984848,914.183838 107.714195,916.309875 107.415619,921.371521 
	C107.063988,927.332764 107.302689,933.331909 107.382736,939.313293 
	C107.402840,940.815857 106.723511,942.773865 109.232414,943.442749 
	C111.184349,942.576477 110.673538,940.742188 110.690216,939.201965 
	C110.747787,933.884766 110.713379,928.566650 110.734741,923.249023 
	C110.764549,915.830933 110.772751,915.832703 117.936104,914.953857 
	C118.752197,914.853821 119.618050,914.806519 120.012917,913.047913 
	C115.927536,911.710571 111.673019,912.679626 106.604454,912.365906 
z"/>
<path fill="#000000" opacity="1.000000" stroke="none" 
	d="
M519.352539,547.000122 
	C519.347168,592.160278 519.344116,636.820435 519.335632,681.480530 
	C519.335327,683.146240 519.424316,684.828857 519.226562,686.474182 
	C518.764465,690.318054 516.042236,691.967773 512.621521,691.979553 
	C508.996002,691.992004 506.660583,689.912537 506.637817,686.045166 
	C506.583893,676.880249 506.634155,667.714661 506.631805,658.549377 
	C506.610840,575.894775 506.603851,493.240143 506.543976,410.585571 
	C506.536743,400.600098 506.120331,390.614624 506.138641,380.629608 
	C506.145630,376.819000 504.772583,374.051300 502.094940,371.428741 
	C490.785767,360.352081 479.666595,349.081604 468.377228,337.984497 
	C465.845856,335.496216 464.573578,332.891541 464.583038,329.221252 
	C464.667847,296.412689 464.577820,263.603729 464.571747,230.794861 
	C464.571075,227.180008 463.966858,223.206955 468.670532,221.653763 
	C473.232910,220.147202 475.653351,223.209808 478.444244,225.947678 
	C489.946136,237.230927 501.570770,248.389053 513.393372,259.828430 
	C514.497314,259.516998 515.471924,258.087799 516.622009,256.925690 
	C527.287354,246.148438 537.941467,235.359863 548.561523,224.537949 
	C551.021545,222.031174 553.634766,220.033722 557.353455,221.462845 
	C561.239258,222.956177 561.294006,226.358078 561.290833,229.809311 
	C561.260620,262.637878 561.212280,295.466614 561.327148,328.294769 
	C561.340576,332.110901 560.172485,334.947937 557.507751,337.579163 
	C546.125366,348.818176 534.923157,360.240234 523.489746,371.426331 
	C520.530212,374.321808 519.276245,377.328064 519.285522,381.525299 
	C519.406982,436.516693 519.359131,491.508453 519.352539,547.000122 
M547.452209,246.853989 
	C546.436951,246.193176 545.894226,247.087585 545.372803,247.603851 
	C537.320679,255.576279 529.319885,263.600708 521.254395,271.559570 
	C519.524536,273.266571 519.338318,275.295593 519.341370,277.519043 
	C519.374878,301.682373 519.362366,325.845764 519.414246,350.009033 
	C519.417908,351.725342 518.976440,353.627899 521.033630,355.791351 
	C529.474854,347.129852 537.810547,338.547699 546.188782,330.007294 
	C547.638000,328.529999 547.696472,326.767120 547.694763,324.915466 
	C547.670898,299.085999 547.653320,273.256500 547.452209,246.853989 
M505.994080,339.494507 
	C505.968933,318.855652 505.887512,298.216553 505.974213,277.578186 
	C505.988647,274.145416 504.948334,271.621033 502.440277,269.260193 
	C496.625000,263.786285 491.075745,258.030792 485.363251,252.446136 
	C483.404480,250.531189 481.736938,248.197632 478.886597,247.058365 
	C478.607941,247.788513 478.298523,248.221725 478.297607,248.655563 
	C478.244781,274.453400 478.226196,300.251343 478.171539,326.049164 
	C478.166901,328.241394 479.190369,329.810455 480.665344,331.268707 
	C488.121796,338.640564 495.542084,346.048981 503.007996,353.411163 
	C503.649231,354.043457 504.277313,355.085358 505.998108,354.156372 
	C505.998108,349.773529 505.998108,345.132019 505.994080,339.494507 
z"/>
<path fill="#000000" opacity="1.000000" stroke="none" 
	d="
M630.782532,723.800415 
	C652.259399,652.865417 609.007507,584.106873 538.537170,568.313232 
	C537.076050,567.985779 535.626038,567.545288 534.145996,567.379761 
	C531.226318,567.053345 530.366150,565.564148 530.435364,562.653931 
	C530.664734,553.017273 530.553894,553.014648 539.677673,554.808899 
	C592.885010,565.272583 635.694214,607.553162 646.946838,659.903870 
	C662.671997,733.062195 613.414978,806.002319 539.493408,820.186523 
	C468.644196,833.781250 398.054718,789.646362 380.239532,721.620911 
	C363.050323,655.985657 397.918976,589.326172 459.019531,563.349243 
	C469.060120,559.080444 479.483124,556.456055 490.094025,554.234314 
	C494.354828,553.342224 495.355560,554.927063 495.373199,558.801453 
	C495.409485,566.762817 495.544373,566.762207 487.638580,568.295959 
	C438.115509,577.903809 397.915131,619.599854 390.462524,669.087341 
	C381.381409,729.388611 420.059875,787.927979 478.971405,804.722351 
	C545.610901,823.719910 611.221008,784.280762 630.782532,723.800415 
z"/>
<path fill="#000000" opacity="1.000000" stroke="none" 
	d="
M431.037231,718.030945 
	C445.587708,751.965576 478.452637,773.252686 514.957397,772.649475 
	C557.802917,771.941467 595.689209,736.501892 599.921753,694.289307 
	C604.276917,650.853699 576.867249,614.720459 539.729858,603.206421 
	C529.249512,599.957092 529.303528,599.782837 531.041870,588.123413 
	C532.454712,587.221497 533.889893,587.803650 535.321777,588.145569 
	C577.859070,598.302002 607.815918,630.165527 612.828186,673.323242 
	C616.952393,708.833618 604.793945,739.173218 577.175537,762.189453 
	C518.264648,811.283630 427.772339,779.580505 413.185852,704.405151 
	C402.561493,649.649658 436.560699,604.768921 481.557281,590.693909 
	C484.733459,589.700378 487.956604,588.848572 491.180511,588.018860 
	C493.861877,587.328857 495.371307,588.276245 495.295288,591.231628 
	C495.256744,592.729919 495.168152,594.247498 495.347260,595.726685 
	C495.789398,599.377197 494.252045,601.004333 490.648621,601.903198 
	C473.908539,606.079102 459.553772,614.492554 447.746704,627.106812 
	C434.303070,641.469482 426.789764,658.424133 425.060760,678.098999 
	C423.854004,691.831421 425.705200,704.962402 431.037231,718.030945 
z"/>
<path fill="#000000" opacity="1.000000" stroke="none" 
	d="
M461.258484,669.246948 
	C453.562927,695.515381 466.357025,722.535522 491.205536,733.081787 
	C516.604431,743.861694 545.094727,734.240967 558.995911,711.210388 
	C574.226807,685.976807 564.851074,651.680054 538.847595,637.992798 
	C529.135498,632.880798 529.164185,632.826233 531.107971,621.435608 
	C552.521973,624.190918 576.801453,648.468018 579.380371,678.504822 
	C582.687134,717.018799 553.245056,750.162415 514.059631,750.820862 
	C474.658478,751.483093 447.817932,721.712585 445.760376,689.415894 
	C443.247070,649.966492 473.128296,623.777222 494.235565,621.205933 
	C497.241028,629.447693 495.926788,633.066101 488.728943,636.717224 
	C475.135498,643.612366 465.886810,654.231262 461.258484,669.246948 
z"/>
<path fill="#000000" opacity="1.000000" stroke="none" 
	d="
M493.741394,681.560547 
	C492.823273,690.509338 496.265747,697.073914 503.635529,701.074280 
	C510.876831,705.004883 518.316772,704.078796 524.750122,699.086121 
	C531.155701,694.115234 532.824219,687.214783 531.107971,679.365601 
	C529.673462,672.805176 531.015442,666.242432 530.745728,659.508911 
	C539.930847,662.186707 546.455994,675.734253 545.205750,688.462341 
	C543.817261,702.597290 530.467590,715.364624 516.119019,716.280273 
	C499.086578,717.367065 485.255341,707.959412 481.268005,692.575439 
	C477.847076,679.376709 483.745483,664.028320 494.735504,659.045471 
	C495.504272,666.640015 496.005096,673.906799 493.741394,681.560547 
z"/>
<path fill="#000000" opacity="1.000000" stroke="none" 
	d="
M157.717133,993.813110 
	C153.864059,995.672791 151.069702,994.523071 149.458649,991.273987 
	C145.426834,983.142639 145.850143,974.791138 149.658234,966.797241 
	C151.784958,962.332764 157.125214,962.327759 159.764435,966.287109 
	C163.976898,972.606384 163.017563,987.756531 157.717133,993.813110 
z"/>
<path fill="#000000" opacity="1.000000" stroke="none" 
	d="
M140.684830,915.953857 
	C146.596008,921.552063 148.067810,929.365479 144.618744,935.706909 
	C142.644760,939.336182 139.699173,941.486389 135.357361,941.303345 
	C131.163055,941.126465 128.619293,938.672729 127.061134,935.106140 
	C125.340088,931.166626 125.115211,927.027283 126.394829,922.909058 
	C128.495224,916.149292 133.436951,913.659546 140.684830,915.953857 
z"/>
<path fill="#000000" opacity="1.000000" stroke="none" 
	d="
M171.814514,921.770752 
	C171.022873,924.462341 169.942413,926.753296 167.344421,926.992432 
	C164.708755,927.234924 160.643936,929.159119 160.118210,924.671204 
	C159.738556,921.430481 157.482193,916.642761 162.728256,914.946960 
	C167.046021,913.551331 170.711014,916.443237 171.814514,921.770752 
z"/>
<path fill="#000000" opacity="1.000000" stroke="none" 
	d="
M54.664772,971.169189 
	C54.752693,968.453613 54.145576,965.707214 57.612350,965.469849 
	C61.237011,965.221619 64.680016,965.702759 66.380859,969.585449 
	C67.839493,972.915100 67.049980,975.886047 64.160194,977.942444 
	C61.826450,979.603210 58.725552,980.696655 56.197739,979.371521 
	C53.149220,977.773438 55.195454,974.250061 54.664772,971.169189 
z"/>
</svg>