<svg version="1.1" id="Layer_1" xmlns="http://www.w3.org/2000/svg" xmlns:xlink="http://www.w3.org/1999/xlink" x="0px" y="0px"
	 width="100%" viewBox="0 0 512 512" enable-background="new 0 0 512 512" xml:space="preserve">
<path fill="#000000" opacity="1.000000" stroke="none" 
	d="
M336.531342,1.000000 
	C360.208466,21.560556 381.189728,44.390404 403.277771,66.092430 
	C416.707123,79.287102 429.882599,92.739853 443.275513,105.972046 
	C447.405304,110.052307 449.447723,114.542206 449.441345,120.550316 
	C449.316406,237.690948 449.210571,354.832092 449.514618,471.972076 
	C449.554810,487.462494 437.694641,504.986023 423.367981,510.437744 
	C421.991913,510.961365 420.727478,511.778412 419.205627,512.729614 
	C311.312439,513.000000 203.624878,513.000000 95.309540,512.703796 
	C93.527893,511.798340 92.424507,511.054260 91.212456,510.600311 
	C76.021179,504.910950 64.453094,487.770935 64.485916,471.590302 
	C64.777428,327.885590 64.659088,184.180054 64.649879,40.474751 
	C64.649239,30.489813 68.767578,22.260698 75.095924,14.835511 
	C80.759750,8.190009 88.204987,4.360418 96.000000,1.000000 
	C176.020889,1.000000 256.041779,1.000000 336.531342,1.000000 
M87.349922,217.499878 
	C87.349976,301.314728 87.341980,385.129608 87.358810,468.944458 
	C87.361320,481.448181 96.320808,490.635071 108.518936,490.637085 
	C207.497726,490.653381 306.476532,490.656067 405.455322,490.634277 
	C417.378998,490.631653 426.632629,481.373199 426.635529,469.411987 
	C426.662567,357.935883 426.634369,246.459747 426.738495,134.983719 
	C426.742554,130.648834 425.537659,129.211761 421.092133,129.260529 
	C401.765289,129.472534 382.430115,129.093307 363.107574,129.449783 
	C353.655731,129.624176 345.320160,126.973579 338.034668,121.427010 
	C327.222961,113.195854 320.570496,102.534195 320.634277,88.384735 
	C320.719940,69.389198 320.659241,50.392979 320.653442,31.397051 
	C320.650970,23.385124 320.641785,23.371645 312.871002,23.370977 
	C245.052200,23.365152 177.233398,23.360546 109.414589,23.365715 
	C95.873802,23.366747 87.353851,31.928377 87.352036,45.536495 
	C87.344437,102.524284 87.349800,159.512070 87.349922,217.499878 
M343.348236,61.500130 
	C343.349640,69.660561 343.284668,77.821678 343.368469,85.981262 
	C343.485291,97.353485 352.714966,106.584541 364.027496,106.631355 
	C377.516907,106.687180 391.006775,106.655548 404.496277,106.608826 
	C405.915497,106.603912 407.479218,107.122025 407.496948,107.162918 
	C386.074493,85.438812 364.652039,63.714706 343.348724,42.111397 
	C343.348724,47.871620 343.348724,54.185955 343.348236,61.500130 
z"/>
<path fill="#000000" opacity="1.000000" stroke="none" 
	d="
M302.615295,305.358490 
	C309.004028,313.518372 316.970428,312.756683 325.709412,311.286835 
	C340.154694,308.857239 354.756592,308.013123 369.024109,312.744263 
	C377.564697,315.576355 384.380859,320.439941 385.239410,330.215820 
	C386.313446,342.445038 385.328247,354.501587 372.580200,360.623077 
	C362.411011,365.506195 351.629120,366.342804 340.906799,360.994019 
	C329.691925,355.399597 319.514343,348.273376 309.541656,340.799103 
	C306.548340,338.555725 303.576050,338.159515 299.797089,338.938873 
	C280.165802,342.987366 260.902832,348.259857 241.729889,354.120941 
	C233.855286,356.528137 230.717697,361.959137 227.487808,368.018280 
	C218.902435,384.124084 208.326736,398.707336 194.918961,411.132690 
	C187.067917,418.408508 178.472549,424.606262 167.966919,427.532684 
	C157.045319,430.574982 140.323944,426.247559 132.947144,416.276031 
	C127.087448,408.355225 126.889603,396.845795 132.332657,388.291138 
	C138.556885,378.508789 147.996399,372.667725 157.933395,367.627594 
	C175.583237,358.675537 193.385300,350.020905 211.194305,341.387512 
	C215.050323,339.518188 217.285141,336.819672 218.852890,332.809753 
	C225.813263,315.006592 231.152390,296.654175 237.589554,278.679291 
	C238.814209,275.259583 238.654694,272.474976 236.407532,269.404175 
	C228.248535,258.254639 220.786621,246.629959 216.621979,233.324585 
	C211.685669,217.553864 212.257599,201.873718 219.085190,186.717453 
	C225.003479,173.579727 239.228058,169.331772 251.654831,170.943527 
	C260.301758,172.065048 268.221649,174.746185 272.979767,182.851517 
	C276.037628,188.060547 277.303864,193.878769 278.298309,199.762039 
	C280.536652,213.004333 278.380890,225.798935 274.431915,238.427689 
	C271.711487,247.127548 269.147736,255.877045 266.355835,264.553467 
	C265.611755,266.865875 265.913025,268.448822 267.507172,270.375580 
	C278.016418,283.077759 289.410156,294.866852 302.615295,305.358490 
M244.475708,238.939255 
	C245.599823,240.518478 246.723938,242.097702 248.259430,244.254852 
	C250.062485,238.438858 251.565842,233.234024 253.291473,228.103973 
	C256.108521,219.729294 255.959732,211.091309 255.515549,202.480667 
	C255.326324,198.812744 254.143768,195.150787 249.567764,194.420715 
	C243.420853,193.440018 240.100204,194.918747 238.576904,200.234055 
	C236.855942,206.239014 235.681625,212.291183 237.064438,218.781326 
	C238.536285,225.689316 240.875687,232.125183 244.475708,238.939255 
M256.032837,296.921234 
	C252.600540,307.167053 249.168243,317.412903 245.575333,328.138184 
	C257.665497,324.977783 268.834442,322.058167 279.902344,319.164948 
	C279.902344,318.347107 280.042938,317.892273 279.882111,317.721771 
	C272.833374,310.249542 264.827057,303.710449 258.414062,295.609375 
	C257.578644,294.554047 256.661255,295.087708 256.032837,296.921234 
M189.883652,377.752533 
	C181.116669,381.340637 172.922302,386.081238 164.746979,390.775665 
	C159.904785,393.556061 154.203308,395.790100 152.023239,401.973663 
	C155.811722,405.337860 159.823792,406.310822 164.400177,404.160645 
	C177.219574,398.137695 185.557053,387.364532 194.916367,376.062683 
	C192.681412,376.806946 191.600189,377.166992 189.883652,377.752533 
M344.857910,332.355133 
	C343.385864,332.614197 341.695618,331.877686 340.169250,333.172394 
	C344.213043,336.705688 348.748230,338.779663 353.179718,341.011322 
	C355.078888,341.967743 357.055939,341.873383 358.923584,340.869812 
	C360.523285,340.010284 362.423615,339.188049 362.389099,337.035614 
	C362.351288,334.677032 360.126495,334.125275 358.478943,333.842957 
	C354.259064,333.119812 349.966858,332.818939 344.857910,332.355133 
z"/>
</svg>