<svg version="1.1" id="Layer_1" xmlns="http://www.w3.org/2000/svg" xmlns:xlink="http://www.w3.org/1999/xlink" x="0px" y="0px"
	 width="100%" viewBox="0 0 1024 1024" enable-background="new 0 0 1024 1024" xml:space="preserve">
<path fill="#000000" opacity="1.000000" stroke="none" 
	d="
M422.539124,760.452637 
	C451.491364,764.007812 479.798248,762.746399 507.860321,756.625061 
	C514.033020,755.278625 520.100159,753.450012 526.219849,751.858521 
	C531.968750,750.363525 536.630249,752.442383 538.040833,757.108398 
	C539.604187,762.279785 536.687195,767.502563 531.140137,769.182129 
	C493.579529,780.554504 455.362976,783.596497 416.565216,777.566895 
	C338.992645,765.511353 278.084473,726.344788 232.874710,662.751648 
	C207.320175,626.806030 192.516800,586.468506 187.513519,542.517212 
	C182.206848,495.900909 187.047791,450.482971 206.045776,407.556824 
	C241.026215,328.518219 299.624237,274.527222 383.469879,251.908661 
	C475.040497,227.206207 558.188660,247.035858 630.313354,308.637024 
	C678.481140,349.776855 708.072388,402.379730 718.901367,464.986481 
	C725.068115,500.639252 724.040039,536.234314 715.360779,571.492249 
	C714.162476,576.360352 711.556824,579.810730 706.363037,580.097595 
	C702.073792,580.334534 699.216736,577.811462 697.707092,573.821228 
	C696.695129,571.146362 697.556152,568.550415 698.141052,565.974792 
	C702.432190,547.077820 704.988464,527.911621 704.566406,508.569916 
	C702.877319,431.169769 672.313293,367.281342 613.166382,317.412903 
	C582.861206,291.861786 548.045532,274.545776 509.263885,266.216858 
	C440.555450,251.460709 376.039642,262.062134 317.265778,301.343811 
	C260.785400,339.092682 224.051270,391.209290 209.072144,457.613586 
	C196.849747,511.796906 202.829742,564.638123 226.219803,615.037292 
	C252.259079,671.144897 293.957581,712.156311 349.578278,738.929321 
	C372.530334,749.977295 396.851288,756.859863 422.539124,760.452637 
z"/>
<path fill="#000000" opacity="1.000000" stroke="none" 
	d="
M334.543182,679.442993 
	C359.720459,697.472046 387.147430,709.461670 417.241394,715.088379 
	C439.999756,719.343445 462.858612,720.023376 485.758331,715.923645 
	C492.162292,714.777161 496.519135,716.997009 497.934723,721.807617 
	C499.483582,727.071228 496.255280,732.179932 490.529053,733.255188 
	C467.720001,737.538269 444.805603,737.708191 421.930664,734.157532 
	C385.419434,728.490417 351.901703,715.163208 322.292389,692.936584 
	C271.878082,655.092346 240.835770,605.305420 231.645248,542.592346 
	C222.120636,477.599640 239.319565,419.613953 280.198792,368.969025 
	C316.863037,323.545990 364.695618,295.999878 422.717468,288.051697 
	C488.600159,279.026611 547.572449,296.175537 598.691956,338.778839 
	C639.789734,373.029968 664.933960,416.975037 674.872742,469.455200 
	C681.552307,504.725494 679.609497,539.693542 669.280884,574.133545 
	C668.850647,575.568176 668.446594,577.020874 667.875427,578.401062 
	C665.833984,583.334717 661.278015,585.723572 656.680969,584.344543 
	C651.967346,582.930420 649.341370,578.619263 650.667053,573.299744 
	C652.878418,564.425842 655.589600,555.672363 657.067505,546.626160 
	C665.138062,497.227814 657.938599,450.405884 632.677979,406.904724 
	C607.633972,363.776672 571.823303,332.587524 524.661377,316.405640 
	C449.726959,290.694641 380.561676,302.720428 319.850952,354.134277 
	C281.859070,386.308350 258.010376,427.773499 250.026688,477.171936 
	C240.576569,535.644165 254.107178,588.876831 289.920654,636.238098 
	C302.475342,652.840881 317.434906,667.003479 334.543182,679.442993 
z"/>
<path fill="#000000" opacity="1.000000" stroke="none" 
	d="
M568.094116,621.735718 
	C578.057861,621.744995 585.881653,625.250305 592.430298,632.285767 
	C607.751404,648.746033 623.318726,664.977173 638.765198,681.321045 
	C639.666138,682.274353 640.378967,683.405701 640.995605,684.213562 
	C643.961243,683.256592 645.180542,681.363037 646.663574,679.859680 
	C698.954895,626.851746 751.218811,573.816772 803.504456,520.803223 
	C805.135620,519.149292 806.782837,517.410706 808.718689,516.175598 
	C816.070251,511.485138 824.263184,514.704468 826.536560,523.656433 
	C829.151855,533.955017 831.087830,544.431030 833.156128,554.862244 
	C835.450439,566.433777 837.506165,578.052490 839.770325,589.630249 
	C841.384827,597.885925 839.107056,605.101257 832.975403,610.469360 
	C819.003357,622.701599 807.229065,636.980408 794.696350,650.546265 
	C774.920410,671.952454 755.370605,693.567688 735.749451,715.116577 
	C717.698425,734.940918 699.698975,754.812195 681.635071,774.624695 
	C675.918884,780.894226 670.491150,787.502319 663.423279,792.360474 
	C645.911804,804.397034 626.022278,802.536987 611.358887,787.142151 
	C581.259460,755.541260 551.283264,723.822266 521.377991,692.037415 
	C509.386169,679.291931 510.029449,663.386230 522.816467,651.355530 
	C529.972168,644.622986 537.349670,638.125488 544.652283,631.549805 
	C551.189453,625.663391 558.859436,622.391541 568.094116,621.735718 
M598.712708,747.787354 
	C607.063782,756.626526 615.421265,765.459717 623.762390,774.308289 
	C626.549072,777.264526 629.665588,779.665283 633.669617,780.770203 
	C643.640320,783.521545 651.707336,780.122375 658.409363,772.890381 
	C673.466980,756.642090 688.437683,740.313049 703.397949,723.974915 
	C726.792908,698.425110 749.990295,672.692139 773.580322,647.324036 
	C788.762268,630.997681 802.525818,613.312744 819.592285,598.771301 
	C821.804199,596.886658 822.675598,594.735413 822.050781,591.710083 
	C819.630493,579.990845 817.476379,568.216736 815.090942,556.489990 
	C813.921204,550.739319 813.478210,544.796326 810.631470,537.536377 
	C808.047241,540.744934 806.339722,543.239685 804.265137,545.378418 
	C792.667175,557.335083 780.997375,569.222473 769.320312,581.102112 
	C748.417297,602.367554 727.483337,623.602539 706.577759,644.865479 
	C688.008301,663.752258 669.494568,682.693909 650.883240,701.539124 
	C644.333252,708.171509 639.459534,708.408936 633.806152,702.406921 
	C616.217529,683.733459 598.652039,665.037354 581.208618,646.228455 
	C573.330627,637.733704 566.307434,636.886963 557.437805,644.434875 
	C549.705627,651.014893 542.247559,657.926575 534.836243,664.870850 
	C529.642090,669.737671 529.641785,674.362427 534.539062,679.574951 
	C555.753784,702.155579 576.996216,724.710205 598.712708,747.787354 
z"/>
<path fill="#000000" opacity="1.000000" stroke="none" 
	d="
M523.000122,502.671387 
	C534.990967,502.673889 546.482056,502.641083 557.972656,502.694366 
	C564.154602,502.723053 568.015503,506.129089 568.008606,511.359650 
	C568.002014,516.364075 563.794556,520.268921 558.014343,520.280701 
	C533.700500,520.330383 509.386047,520.358032 485.072937,520.210388 
	C481.336548,520.187683 479.079620,521.140381 477.182465,524.636902 
	C471.827972,534.505615 460.975189,539.718628 450.375946,538.118103 
	C439.370758,536.456299 430.821014,528.496826 428.781555,518.014587 
	C426.373291,505.636688 430.398956,494.969147 440.415070,489.070587 
	C444.019379,486.947968 444.963287,484.509186 444.953705,480.648224 
	C444.870239,447.008698 444.943024,413.368774 444.972290,379.728973 
	C444.974762,376.899994 444.880219,374.065796 445.638611,371.291016 
	C446.729462,367.300018 449.296967,365.038544 453.427704,364.707977 
	C457.787659,364.359070 460.726105,366.313721 462.405029,370.354584 
	C463.405792,372.763336 463.231537,375.256592 463.232971,377.740204 
	C463.252625,412.046173 463.307678,446.352295 463.184479,480.657806 
	C463.170349,484.594604 464.068176,487.094727 467.925476,488.825256 
	C472.092651,490.694855 475.337189,494.117249 477.176056,498.310547 
	C478.812500,502.042175 481.314148,502.793365 485.030701,502.738220 
	C497.518066,502.552795 510.009918,502.670349 523.000122,502.671387 
M459.639893,504.695831 
	C456.084503,502.497742 452.459656,502.103424 449.033630,504.783417 
	C446.381714,506.857941 445.169556,509.723114 445.899353,513.120972 
	C446.753723,517.098694 449.358704,519.606506 453.279327,520.210266 
	C456.800690,520.752625 459.916748,519.287292 461.660004,516.128113 
	C463.782074,512.282532 463.362579,508.493286 459.639893,504.695831 
z"/>
<path fill="#000000" opacity="1.000000" stroke="none" 
	d="
M451.513672,675.879395 
	C459.748688,675.549988 463.059662,678.561584 463.164764,686.201660 
	C463.244873,692.027832 463.284668,697.859131 463.131775,703.682678 
	C462.972900,709.732971 459.817474,713.122314 454.538177,713.293274 
	C449.280731,713.463562 445.584473,710.255127 445.261078,704.353638 
	C444.897400,697.717407 445.048401,691.042053 445.233246,684.390808 
	C445.342590,680.456787 447.078552,677.330505 451.513672,675.879395 
z"/>
<path fill="#000000" opacity="1.000000" stroke="none" 
	d="
M271.989502,519.964478 
	C267.840088,519.924072 264.153717,520.155396 260.530731,519.778198 
	C255.251892,519.228455 252.551056,515.854675 252.685898,510.659363 
	C252.814377,505.708588 255.474350,502.469940 260.658203,502.205841 
	C267.624695,501.850952 274.638123,501.857269 281.603760,502.228058 
	C286.911041,502.510590 290.394714,506.634491 290.232300,511.406372 
	C290.069031,516.202942 286.352020,519.721375 280.965912,519.981018 
	C278.144409,520.116943 275.309631,519.978577 271.989502,519.964478 
z"/>
<path fill="#000000" opacity="1.000000" stroke="none" 
	d="
M625.704224,502.183014 
	C632.455627,502.090179 638.779236,501.888702 645.090393,502.086151 
	C651.357971,502.282318 655.109192,505.762451 655.164185,510.895508 
	C655.220581,516.156799 651.114380,519.949524 644.871643,520.080444 
	C639.054443,520.202515 633.227478,520.171509 627.412109,519.983337 
	C621.499634,519.792053 618.342651,517.262268 617.703430,512.617004 
	C616.957275,507.195282 619.287415,504.002991 625.704224,502.183014 
z"/>
<path fill="#000000" opacity="1.000000" stroke="none" 
	d="
M612.159607,430.328247 
	C608.984009,432.329742 606.075623,433.868530 602.497437,433.281006 
	C598.569031,432.635986 596.294067,430.167999 595.284973,426.544586 
	C594.173462,422.553497 595.571289,419.125214 598.949341,416.997467 
	C604.717651,413.364227 610.615051,409.895203 616.674927,406.778778 
	C621.338135,404.380676 626.399658,406.333405 628.558838,410.746338 
	C630.859436,415.448639 629.531677,419.953674 624.938904,422.745026 
	C620.814209,425.251831 616.641968,427.680450 612.159607,430.328247 
z"/>
<path fill="#000000" opacity="1.000000" stroke="none" 
	d="
M444.873962,332.840027 
	C444.883453,328.217712 444.795929,324.069092 444.921021,319.926880 
	C445.132233,312.933746 448.457214,309.041077 453.986237,309.099152 
	C459.176270,309.153687 462.518127,312.910431 462.877502,319.675781 
	C463.158630,324.968201 463.114655,330.287933 462.982300,335.589722 
	C462.811127,342.447388 459.404999,346.271515 453.783600,346.273834 
	C448.530914,346.276001 445.235291,342.405823 444.886169,335.803711 
	C444.842438,334.976746 444.875183,334.145752 444.873962,332.840027 
z"/>
<path fill="#000000" opacity="1.000000" stroke="none" 
	d="
M349.936951,344.778351 
	C349.953156,339.431122 352.264587,336.018860 357.153229,335.026611 
	C361.868164,334.069580 365.091431,336.558228 367.294556,340.557312 
	C370.100891,345.651428 373.001404,350.697571 375.661346,355.867340 
	C378.363129,361.118439 377.096405,365.872528 372.609680,368.334808 
	C368.083466,370.818756 363.068481,369.481812 360.258820,364.497406 
	C356.679291,358.147339 352.437653,352.131439 349.936951,344.778351 
z"/>
<path fill="#000000" opacity="1.000000" stroke="none" 
	d="
M301.173340,589.864746 
	C307.100006,588.373047 310.980560,589.912048 312.776947,594.175964 
	C314.633698,598.583130 313.283325,603.050903 308.868866,605.824951 
	C303.809326,609.004456 298.654999,612.055603 293.390259,614.879883 
	C287.909576,617.820068 282.672699,616.368835 280.056885,611.546082 
	C277.648834,607.106262 279.131317,602.553589 284.363098,599.386475 
	C289.759521,596.119629 295.320770,593.125061 301.173340,589.864746 
z"/>
<path fill="#000000" opacity="1.000000" stroke="none" 
	d="
M533.666138,351.823242 
	C536.133972,347.452545 538.342285,343.365936 540.741760,339.394806 
	C543.622009,334.627991 548.640015,333.094940 553.067139,335.449127 
	C557.136963,337.613342 558.723816,342.665771 556.358887,347.568512 
	C553.770630,352.934143 550.843872,358.149750 547.828979,363.292572 
	C544.693420,368.641174 539.752930,370.438324 535.345764,368.171082 
	C530.671692,365.766541 529.387329,360.550507 532.073181,354.782928 
	C532.492188,353.883118 533.015869,353.032074 533.666138,351.823242 
z"/>
<path fill="#000000" opacity="1.000000" stroke="none" 
	d="
M305.605347,415.316284 
	C307.614075,416.825439 309.600555,417.895081 310.956390,419.498108 
	C313.893097,422.970367 314.036652,426.878357 311.088348,430.398712 
	C308.291748,433.738007 304.596039,435.253906 300.471558,432.944214 
	C294.539307,429.622253 288.653229,426.180206 282.997192,422.414368 
	C278.410248,419.360291 277.572174,414.580383 280.260925,410.271271 
	C282.897980,406.045013 287.543579,404.950806 292.381256,407.613800 
	C296.742188,410.014374 300.996063,412.609375 305.605347,415.316284 
z"/>
<path fill="#000000" opacity="1.000000" stroke="none" 
	d="
M374.811829,668.604675 
	C372.302551,673.336243 370.060120,677.776550 367.641174,682.118591 
	C364.940735,686.965942 360.427063,688.580750 355.957367,686.485657 
	C351.353638,684.327759 349.470428,679.317810 351.843048,674.325378 
	C354.544342,668.641541 357.518372,663.074585 360.628693,657.601685 
	C363.384216,652.752991 368.495026,651.210876 372.945007,653.515137 
	C377.178741,655.707458 378.446411,660.227417 376.298645,665.586365 
	C375.929871,666.506470 375.436523,667.376709 374.811829,668.604675 
z"/>
</svg>