<svg version="1.1" id="Layer_1" xmlns="http://www.w3.org/2000/svg" xmlns:xlink="http://www.w3.org/1999/xlink" x="0px" y="0px"
	 width="100%" viewBox="0 0 1024 928" enable-background="new 0 0 1024 928" xml:space="preserve">
<path fill="#000000" opacity="1.000000" stroke="none" 
	d="
M732.908752,487.752319 
	C715.731812,543.420898 688.676392,592.870422 648.309998,634.805664 
	C611.049866,673.513977 566.628479,701.286011 517.568726,722.242310 
	C514.449341,723.574829 511.522186,723.485840 508.407257,722.182983 
	C433.808594,690.982422 372.639771,643.721436 330.483246,573.652771 
	C305.819000,532.658203 290.537384,488.144226 280.692810,441.568726 
	C274.664368,413.047546 270.942810,384.222900 268.545135,355.175903 
	C266.623047,331.890869 266.511078,308.599426 266.821442,285.282532 
	C266.890045,280.128632 267.382172,274.980225 267.683197,269.829529 
	C268.001007,264.391968 270.710205,261.703979 276.278595,261.673279 
	C286.941589,261.614471 297.606049,261.785339 308.268677,261.703156 
	C352.022736,261.365936 393.537659,251.892838 431.637024,229.952820 
	C462.261597,212.317276 487.099518,188.635788 503.678772,156.970322 
	C504.683228,155.051865 505.571503,153.055023 506.749664,151.248459 
	C509.774658,146.609970 515.569336,146.524368 518.837463,150.998230 
	C519.325745,151.666687 519.719421,152.412903 520.092896,153.155304 
	C541.745056,196.196152 576.835266,224.245789 620.391846,242.681656 
	C645.595947,253.349609 671.997681,259.008911 699.300903,260.928711 
	C715.458557,262.064819 731.598633,261.650818 747.750305,261.592316 
	C754.724976,261.567047 757.851013,264.379150 758.256836,271.257385 
	C760.747131,313.460876 758.046143,355.403839 752.523560,397.262817 
	C748.486877,427.859039 742.003723,457.870819 732.908752,487.752319 
M708.417725,520.968689 
	C729.172607,470.828796 739.660217,418.278656 744.566467,364.512268 
	C747.153564,336.161224 748.638489,307.727753 746.984375,279.214905 
	C746.729675,274.823456 745.777100,272.852356 740.980042,273.327972 
	C725.501282,274.862640 710.039368,273.706207 694.615173,272.340546 
	C665.050781,269.722870 636.505737,262.884766 609.355225,250.763290 
	C572.793030,234.439941 542.379883,210.558502 519.873474,177.123703 
	C517.584961,173.723969 515.483704,170.198181 513.253906,166.664948 
	C510.739319,168.281662 509.886383,170.527969 508.710144,172.471466 
	C496.735962,192.256561 481.224396,208.969971 463.010651,222.957474 
	C419.482117,256.385742 369.472839,271.279999 315.151672,273.372925 
	C304.659149,273.777161 294.183899,274.000336 283.704163,273.318970 
	C280.654510,273.120728 279.064667,274.103027 279.030609,277.473450 
	C278.976898,282.795654 278.459137,288.111938 278.352692,293.435028 
	C277.739563,324.104431 279.363220,354.649414 283.199799,385.095856 
	C288.036804,423.481995 295.582214,461.224365 308.285950,497.869476 
	C323.347198,541.315063 344.885620,581.015686 375.430267,615.590515 
	C412.294037,657.318176 457.404968,687.390747 508.204224,709.425903 
	C511.527344,710.867432 514.458862,710.796875 517.761169,709.364990 
	C527.093140,705.318542 536.214111,700.848389 545.257324,696.211365 
	C620.529663,657.614380 675.171936,599.767517 708.417725,520.968689 
z"/>
<path fill="#000000" opacity="1.000000" stroke="none" 
	d="
M376.680969,288.626831 
	C404.102417,282.386200 429.563660,272.394501 453.183380,257.821350 
	C473.054474,245.561096 490.612122,230.622452 505.648773,212.743622 
	C511.087860,206.276428 514.543274,206.402191 520.041565,212.832642 
	C549.693787,247.511780 587.001709,270.317291 630.368713,283.629578 
	C652.773254,290.507111 675.736267,294.061127 699.139526,294.904663 
	C704.962402,295.114532 710.780151,295.470978 716.603516,295.662720 
	C722.605652,295.860352 725.283936,298.164978 725.167480,304.186096 
	C724.919678,317.004669 724.674133,329.839478 723.816406,342.626648 
	C722.157043,367.364868 719.619385,392.021942 715.292358,416.461487 
	C705.272644,473.054504 686.859558,526.329041 652.629761,573.205994 
	C620.002563,617.888245 578.038696,651.295227 528.147644,674.851501 
	C512.421448,682.276733 512.307007,681.988586 496.360443,674.283447 
	C448.608093,651.210083 407.774689,619.481384 375.748260,577.000671 
	C349.028809,541.559265 331.085693,501.839844 319.735931,459.036957 
	C310.669556,424.845367 305.129120,390.097504 302.524323,354.822144 
	C301.296509,338.194031 300.611298,321.576294 300.678955,304.915344 
	C300.708191,297.712311 302.658966,295.804565 309.844757,295.667633 
	C332.183167,295.242126 354.393341,293.561371 376.680969,288.626831 
M398.264282,586.242737 
	C429.112030,621.638306 466.644623,647.876587 509.157776,667.332825 
	C511.835480,668.558228 514.096008,668.568726 516.727051,667.362671 
	C548.770325,652.673889 578.067810,633.841003 604.111633,609.999512 
	C645.493286,572.117188 672.582703,525.402649 689.588562,472.381927 
	C706.315796,420.230225 711.696960,366.397491 713.661011,312.033813 
	C713.800659,308.169220 712.207458,307.344604 708.679321,307.238953 
	C688.521790,306.635437 668.534729,304.550903 648.770996,300.312286 
	C606.959351,291.345093 569.356506,273.773590 536.509277,246.222931 
	C528.225830,239.275146 520.595459,231.650711 512.291748,223.070374 
	C511.207611,224.626755 510.496582,225.977280 509.488068,227.047424 
	C484.414917,253.651627 454.796417,273.558807 420.909058,287.209900 
	C387.899658,300.507294 353.355835,305.940704 318.036926,307.184540 
	C313.376068,307.348663 311.955322,308.706085 312.163025,313.227844 
	C312.514191,320.874542 312.635468,328.530334 312.966400,336.185669 
	C314.305511,367.162842 318.165039,397.796051 324.323486,428.169037 
	C336.168854,486.589264 358.316315,540.186401 398.264282,586.242737 
z"/>
<path fill="#000000" opacity="1.000000" stroke="none" 
	d="
M636.265564,414.026611 
	C619.233032,433.016602 602.375916,451.679138 585.517334,470.340485 
	C565.196289,492.834625 544.880249,515.333191 524.544800,537.814270 
	C521.975098,540.655090 519.376221,543.476990 516.662231,546.178528 
	C506.191223,556.601196 490.339722,556.964294 479.954559,546.355408 
	C458.274933,524.208740 436.073608,502.593719 414.110535,480.735901 
	C404.218872,470.891602 404.402771,456.232300 414.001587,446.135498 
	C416.182526,443.841400 418.431061,441.611511 420.650970,439.354523 
	C432.463531,427.344696 447.496063,427.111938 459.569489,439.048004 
	C470.942017,450.291107 482.087524,461.764587 493.267242,473.200897 
	C494.403870,474.363647 495.088959,475.967743 496.301575,477.864349 
	C505.308624,468.026245 513.216187,459.524414 520.974792,450.888794 
	C542.682739,426.727203 564.242920,402.432343 586.033142,378.345398 
	C598.454407,364.614929 612.439880,364.031891 626.233643,376.237946 
	C627.979553,377.782867 629.715637,379.345306 631.368164,380.988312 
	C641.194702,390.758698 642.804871,401.228149 636.265564,414.026611 
M432.216339,444.525696 
	C429.861481,446.879425 427.498627,449.225220 425.153229,451.588348 
	C416.616730,460.189514 416.689514,466.859833 425.424683,475.517487 
	C445.663239,495.576294 466.313080,515.221802 485.901215,535.934082 
	C494.392761,544.913025 502.200592,544.887512 510.533173,535.751526 
	C533.325684,510.761353 556.008057,485.670807 578.747009,460.631805 
	C593.982178,443.855621 609.302185,427.155884 624.456421,410.307007 
	C630.582520,403.495880 630.035400,395.819641 623.381531,389.534729 
	C621.322205,387.589600 619.258850,385.645172 617.125488,383.782593 
	C609.955200,377.522400 602.508606,377.721466 596.016235,384.778168 
	C585.188965,396.546570 574.607727,408.541046 563.894958,420.415161 
	C543.694458,442.805450 523.522766,465.222076 503.228729,487.527344 
	C498.011078,493.262115 496.533020,492.989075 491.168121,487.536072 
	C477.844360,473.993561 464.469849,460.500031 451.016907,447.085907 
	C445.356628,441.441986 440.159424,440.731445 432.216339,444.525696 
z"/>
</svg>