<svg version="1.1" id="Layer_1" xmlns="http://www.w3.org/2000/svg" xmlns:xlink="http://www.w3.org/1999/xlink" x="0px" y="0px"
	 width="100%" viewBox="0 0 1024 1024" enable-background="new 0 0 1024 1024" xml:space="preserve">
<path fill="#000000" opacity="1.000000" stroke="none" 
	d="
M677.000000,622.305664 
	C660.670776,622.303284 644.841553,622.325012 629.012451,622.284668 
	C623.205566,622.269836 622.027161,620.945923 622.571655,615.055542 
	C623.841553,601.319031 625.357361,587.619019 628.505188,574.148438 
	C630.949951,563.686279 637.558105,556.940491 647.234375,552.971191 
	C658.652588,548.287231 670.602783,545.188965 682.345154,541.475769 
	C688.264465,539.603882 690.861633,531.246155 686.724060,526.419312 
	C682.121460,521.049927 678.206543,515.327332 675.990723,508.558960 
	C675.562561,507.250946 674.864685,506.249817 673.783325,505.347107 
	C662.591736,496.004028 660.913269,485.510376 668.724121,473.554230 
	C669.772217,471.949921 669.502808,470.467194 669.218140,468.799377 
	C667.700562,459.908752 666.898926,451.028809 668.506104,442.008484 
	C670.680054,429.807343 677.796082,421.514648 688.622925,416.337219 
	C704.212891,408.882019 720.352539,408.136414 736.700928,413.673615 
	C743.053345,415.825195 748.319336,419.476715 750.933594,426.048615 
	C751.369385,427.144104 751.845520,428.192352 752.998169,428.750916 
	C763.258484,433.722656 763.480469,443.357239 763.768677,452.712372 
	C763.905579,457.156281 763.018677,461.647156 762.423157,466.093628 
	C761.896912,470.022461 761.672485,473.380249 764.207703,477.262726 
	C769.087830,484.736267 765.382385,498.091339 757.458435,504.151703 
	C755.225281,505.859619 753.786865,507.720215 752.823425,510.347992 
	C750.690125,516.166199 747.574219,521.455261 743.525757,526.213501 
	C738.441223,532.189392 740.693359,539.540833 748.061157,541.809204 
	C758.083679,544.895020 768.045776,548.177307 778.071655,551.251953 
	C791.096313,555.246094 798.741150,563.806519 801.356201,577.249329 
	C803.900696,590.328979 805.283264,603.542297 806.797546,616.749573 
	C807.171082,620.007568 805.676086,621.851196 802.462524,622.208740 
	C800.979492,622.373779 799.467285,622.295471 797.968323,622.295715 
	C757.812195,622.301392 717.656128,622.302979 677.000000,622.305664 
M687.209961,465.520996 
	C686.495789,470.452484 685.919922,475.409058 685.032288,480.309143 
	C683.932373,486.380524 680.419678,487.608246 675.658630,483.768158 
	C675.147888,483.356232 674.668091,482.841980 673.909119,483.218536 
	C672.135315,490.377808 674.049561,494.575195 680.709656,497.913513 
	C682.394592,498.758057 682.996155,500.165741 683.391785,501.856323 
	C685.906189,512.601807 692.385620,520.613281 700.942322,527.181274 
	C709.806702,533.985413 718.957214,534.246521 728.098389,527.747864 
	C736.783630,521.573364 743.042908,513.582947 745.747498,503.100403 
	C746.444702,500.398102 747.596252,498.397766 750.480713,497.218781 
	C755.594482,495.128632 757.802246,488.793091 755.804932,483.205719 
	C749.723083,487.477295 746.428711,485.959137 745.645081,478.565125 
	C745.064270,473.084656 743.723877,467.766632 742.051697,462.527222 
	C741.394226,460.467224 740.625366,458.766479 737.832520,459.864685 
	C723.231628,465.605865 709.091125,462.890137 695.071655,457.512543 
	C693.302063,456.833771 691.623779,455.386414 689.257690,456.103516 
	C688.010864,458.779755 687.690552,461.735229 687.209961,465.520996 
M633.434937,596.880310 
	C633.112122,599.351257 632.798035,601.823425 632.464783,604.292969 
	C631.369080,612.414246 631.790649,612.915344 639.785278,612.944824 
	C641.617188,612.951599 643.449219,612.971069 645.281067,612.963257 
	C657.263672,612.911804 655.392944,613.811035 655.609558,602.967957 
	C655.629456,601.969055 655.647888,600.968750 655.618835,599.970520 
	C655.537720,597.188660 656.823608,595.383484 659.613037,595.250183 
	C662.615295,595.106689 664.234009,596.825562 664.289795,599.852173 
	C664.345032,602.848999 664.404968,605.849976 664.308289,608.844116 
	C664.222351,611.505005 665.203491,612.914734 668.023804,612.901611 
	C677.682678,612.856628 687.341919,612.875183 697.000977,612.857605 
	C699.142029,612.853699 700.328735,611.881287 700.651917,609.635193 
	C701.977112,600.425171 703.366699,591.223816 704.818237,582.032898 
	C705.211670,579.541077 704.938721,577.450500 702.699219,575.991882 
	C700.840820,576.451538 699.994812,578.014832 698.800964,579.117188 
	C693.228699,584.262207 690.088440,583.626831 687.451111,576.664429 
	C684.857544,569.817749 682.241516,562.975464 679.869263,556.051147 
	C678.833679,553.028198 677.350647,552.219788 674.319519,553.283386 
	C666.788086,555.926208 659.160217,558.293030 651.614014,560.895325 
	C643.890381,563.558777 639.436218,569.200684 637.241516,576.921875 
	C635.460999,583.185730 634.729553,589.631714 633.434937,596.880310 
M740.790039,580.324341 
	C733.848938,586.405334 731.420959,577.213684 726.556641,576.120911 
	C724.964966,577.296143 724.185120,578.909119 724.465088,580.870239 
	C725.803833,590.245850 727.196045,599.613831 728.584290,608.982300 
	C728.984070,611.680176 730.400635,612.977844 733.310608,612.944092 
	C742.471985,612.838013 751.635681,612.879150 760.797913,612.943726 
	C763.535095,612.963013 764.754333,611.827454 764.677856,609.060669 
	C764.590393,605.898682 764.625488,602.729370 764.727783,599.567200 
	C764.809387,597.043884 766.188599,595.394165 768.742554,595.378174 
	C771.405823,595.361572 773.174255,596.771973 773.264648,599.637268 
	C773.353882,602.466858 773.467346,605.308472 773.306152,608.129761 
	C773.117432,611.432800 774.158813,613.109192 777.786438,612.963074 
	C782.609802,612.768799 787.452209,612.780029 792.276489,612.964233 
	C795.881348,613.101868 797.094543,611.504822 796.648315,608.145325 
	C795.335876,598.262817 794.697876,588.280029 792.412415,578.541870 
	C790.329285,569.665649 785.457825,563.159241 776.461487,560.277710 
	C769.172302,557.943176 761.850342,555.700745 754.625427,553.180847 
	C751.458557,552.076355 750.521667,553.626404 749.641296,556.130615 
	C746.881836,563.980225 744.001648,571.787354 740.790039,580.324341 
M677.340820,442.936401 
	C675.801025,449.822906 676.281799,456.641235 677.941528,464.198853 
	C679.135498,459.147766 679.868835,454.763977 681.234009,450.586639 
	C683.042908,445.051666 686.444336,443.740265 691.691223,446.333374 
	C696.953796,448.934235 702.390869,450.975342 708.133484,452.133759 
	C719.265747,454.379456 730.243958,455.454376 740.285217,448.220551 
	C743.007324,446.259491 744.937927,448.017944 746.372437,450.409576 
	C749.438049,455.520569 750.815918,461.288544 752.748962,467.298920 
	C754.545898,460.532654 755.239441,454.068909 754.521973,447.595825 
	C753.992615,442.819916 753.248535,437.800079 746.966125,436.703003 
	C744.719849,436.310730 743.929382,434.436157 743.588196,432.268799 
	C742.810303,427.326752 739.657471,424.382355 735.168030,422.591644 
	C726.593506,419.171448 717.594727,418.266571 708.633240,419.531677 
	C694.453125,421.533478 682.186218,426.787689 677.340820,442.936401 
M727.642395,538.463623 
	C717.526672,543.354126 707.720032,541.957825 698.249634,536.581848 
	C695.482544,543.917664 695.620911,544.405273 701.158875,547.825623 
	C714.434387,556.024780 714.312500,555.817871 728.041260,547.724060 
	C732.726562,544.961853 733.481689,541.719788 732.039185,536.724487 
	C730.687866,537.253967 729.505554,537.717224 727.642395,538.463623 
M710.331482,605.595459 
	C710.552185,607.841309 709.204529,610.119507 710.327759,612.317749 
	C719.339355,613.955078 719.879944,613.455872 718.780090,604.686707 
	C718.718201,604.193420 718.753235,603.683899 718.654724,603.199890 
	C717.296204,596.523132 717.231934,589.589478 714.767822,583.033569 
	C712.032593,590.100952 711.865295,597.546387 710.331482,605.595459 
M697.415100,567.653809 
	C699.774475,565.401001 702.520874,563.498169 704.390381,560.093201 
	C698.929321,556.838745 693.648254,553.691467 687.051025,549.759888 
	C689.458435,556.509399 691.333313,561.760559 693.203979,567.013245 
	C693.949951,569.108032 695.143005,569.587402 697.415100,567.653809 
M732.825012,555.377197 
	C730.194397,556.993408 727.563782,558.609619 724.585144,560.439636 
	C728.226929,563.715088 731.128784,566.981873 735.214294,569.451233 
	C737.584656,562.974182 739.766602,557.012085 742.374817,549.885193 
	C738.602905,552.053894 736.026978,553.534973 732.825012,555.377197 
M711.788574,571.802795 
	C713.531006,573.518555 715.491028,574.238647 717.315918,572.171692 
	C718.374878,570.972229 719.201721,569.245605 717.855652,567.689087 
	C716.709778,566.364197 715.445374,564.725037 713.295959,565.900513 
	C711.121765,567.089478 710.273743,568.831055 711.788574,571.802795 
z"/>
<path fill="#000000" opacity="1.000000" stroke="none" 
	d="
M377.441040,517.458374 
	C379.202271,520.128601 380.831696,522.441772 382.416534,524.785095 
	C389.741425,535.615601 386.800476,549.679260 375.744385,556.654419 
	C367.017273,562.160278 357.109070,563.355408 346.387482,564.488770 
	C354.802979,567.192078 362.433105,570.046631 370.275940,572.081604 
	C388.692505,576.860107 398.373657,588.693604 400.302704,607.419861 
	C401.358246,617.666260 402.855804,627.866455 404.053650,638.099243 
	C404.615723,642.900818 402.893463,644.373474 397.021454,644.374878 
	C356.193176,644.384705 315.364838,644.340698 274.536652,644.410278 
	C259.210144,644.436401 243.884384,644.755554 228.557724,644.868591 
	C221.172623,644.923035 220.005798,643.805847 220.718521,636.476501 
	C221.957108,623.739197 223.516174,611.044556 226.360565,598.528015 
	C229.076843,586.575256 236.270935,578.731384 247.669800,574.760803 
	C258.009674,571.159180 268.464539,567.887634 279.236694,564.349670 
	C270.874878,563.405273 262.980011,562.280151 255.560486,559.055969 
	C239.714478,552.170227 235.488190,535.458923 246.549240,522.202759 
	C251.955872,515.723145 252.867477,508.058289 253.646729,500.289703 
	C254.879913,487.995605 256.555176,475.837585 261.637299,464.408997 
	C265.518097,455.681946 270.681152,447.607513 279.268768,443.301697 
	C295.790070,435.017975 312.885010,429.356750 331.884705,435.199432 
	C355.856018,442.570984 367.137909,459.980408 371.239838,483.329498 
	C372.820374,492.326477 373.849091,501.419281 375.284332,510.443756 
	C375.645752,512.716309 376.604492,514.893921 377.441040,517.458374 
M393.771393,626.363159 
	C393.117767,617.220642 391.635529,608.205872 389.369232,599.333191 
	C387.420166,591.702454 382.758331,586.314026 375.290558,583.670776 
	C366.350616,580.506531 357.323975,577.588013 348.358124,574.495605 
	C346.194183,573.749268 344.666321,574.175110 343.090668,575.912048 
	C334.814880,585.035034 326.377197,594.011047 318.100006,603.132690 
	C313.500092,608.202026 311.681763,608.184265 306.994415,603.004150 
	C299.062866,594.238892 291.015961,585.577881 283.003601,576.885864 
	C281.512451,575.268311 280.006439,573.773132 277.414978,574.626953 
	C267.779266,577.801636 257.883759,580.204102 248.537704,584.235535 
	C243.319962,586.486206 239.139328,589.885742 237.042557,595.398926 
	C232.553528,607.202148 231.604721,619.659912 230.255997,632.043457 
	C229.977524,634.600281 231.172440,635.686523 233.723007,635.655090 
	C239.051422,635.589539 244.382507,635.565674 249.709915,635.664124 
	C252.823563,635.721619 253.773285,634.169983 253.681305,631.324219 
	C253.584564,628.331055 253.601257,625.324829 253.767792,622.335388 
	C253.919861,619.605896 255.573425,617.921997 258.281372,618.030823 
	C260.722107,618.128906 262.212280,619.760315 262.299347,622.297485 
	C262.396393,625.125549 262.536346,627.972412 262.323547,630.785828 
	C262.037018,634.573975 263.711761,635.781006 267.309875,635.659729 
	C272.799347,635.474609 278.299927,635.620361 283.795776,635.621582 
	C308.277374,635.626953 332.759369,635.558105 357.240112,635.706909 
	C361.326935,635.731812 363.079468,634.482300 362.711395,630.292603 
	C362.479370,627.651367 362.617493,624.962830 362.775391,622.306519 
	C362.920715,619.862000 364.276062,618.079529 366.784760,618.011047 
	C369.505066,617.936768 371.113495,619.632507 371.240448,622.366882 
	C371.387085,625.525269 371.384369,628.694031 371.337036,631.856689 
	C371.300110,634.327026 372.323730,635.583313 374.869507,635.569580 
	C380.365021,635.539917 385.860840,635.549988 391.356476,635.569397 
	C394.045654,635.578857 394.845612,634.052979 394.560120,631.676331 
	C394.381653,630.191040 394.087402,628.719666 393.771393,626.363159 
M296.232819,454.158508 
	C298.652069,454.727936 299.515839,456.782654 300.577240,458.669739 
	C305.193085,466.876526 310.929718,474.179077 318.156830,480.256256 
	C327.672546,488.257965 338.120728,494.707916 349.883850,498.848450 
	C353.217194,500.021759 355.669281,501.632782 355.115509,505.569153 
	C354.397766,510.671204 353.698944,515.789124 352.647369,520.828247 
	C350.433960,531.434875 346.264282,541.148254 338.727234,549.160217 
	C337.301300,550.676025 336.848694,552.482605 337.667114,554.211060 
	C338.542999,556.060974 340.525879,555.463867 342.154327,555.367676 
	C345.146606,555.190918 348.137390,554.989075 351.128540,554.793457 
	C357.681244,554.364929 364.033844,553.007874 369.770752,549.755615 
	C377.340729,545.464111 380.184021,536.786743 375.397766,530.798035 
	C368.151642,521.731384 365.925995,511.224670 364.619171,500.194427 
	C363.387421,489.797913 362.228302,479.394073 358.135162,469.554016 
	C347.961975,445.097504 318.491241,434.468567 295.175629,446.970551 
	C294.307373,447.436127 293.358948,447.988434 292.419373,448.047607 
	C284.646118,448.536926 279.731476,453.409668 275.492981,459.149170 
	C267.721741,469.672363 264.751526,481.913940 263.345703,494.627441 
	C261.897400,507.724945 260.972870,520.874634 251.017883,531.205627 
	C248.160858,534.170532 248.714996,538.348389 250.196167,542.106140 
	C252.115036,546.974304 256.107513,549.568115 260.685516,551.494263 
	C267.576813,554.393677 274.901764,554.804016 282.218231,555.271545 
	C284.141846,555.394409 286.456238,556.376160 287.499451,553.911926 
	C288.412598,551.754944 287.597839,549.776733 286.041992,547.962463 
	C273.418823,533.242493 270.997681,515.433777 270.736206,496.986145 
	C270.704803,494.771210 271.667633,493.189697 273.611053,492.119904 
	C286.386078,485.087555 291.244720,473.662018 291.316956,459.728455 
	C291.333282,456.583191 292.134674,454.528595 296.232819,454.158508 
M281.496887,498.158966 
	C279.070190,499.665680 279.229065,502.014343 279.495087,504.379669 
	C279.736542,506.526337 280.056610,508.664368 280.283478,510.812408 
	C281.651703,523.767944 286.180420,535.357422 295.312927,544.846069 
	C306.156158,556.112061 318.026855,556.457458 329.487274,545.787476 
	C339.621948,536.351807 344.046173,524.184875 345.662811,510.761261 
	C345.965118,508.251099 344.994263,506.815155 342.597443,505.809540 
	C336.766663,503.363129 331.127045,500.529175 325.762817,497.119354 
	C315.758759,490.760071 306.747986,483.283295 298.871277,473.472107 
	C295.400055,483.558990 290.402252,491.839600 281.496887,498.158966 
M315.490814,592.775757 
	C322.123627,585.666565 328.756470,578.557373 335.802734,571.005005 
	C329.164093,569.002197 330.491089,562.689575 327.753052,558.436768 
	C317.671631,564.286560 307.648163,563.490723 297.456207,558.387329 
	C295.836639,563.418579 296.198425,568.863220 290.356903,571.123413 
	C297.481628,578.986694 304.270294,586.446472 311.015625,593.945251 
	C312.819458,595.950562 313.858246,594.421570 315.490814,592.775757 
z"/>
<path fill="#000000" opacity="1.000000" stroke="none" 
	d="
M508.000000,401.958221 
	C481.333801,401.963135 455.167572,401.970734 429.001373,401.973114 
	C422.699066,401.973694 419.935913,399.269775 420.731903,393.180267 
	C422.239166,381.649872 423.843231,370.123505 425.803619,358.663330 
	C427.917725,346.304596 434.906525,337.797913 447.002106,333.814362 
	C457.282196,330.428711 467.571350,327.070679 477.857452,323.703278 
	C484.060333,321.672607 486.451904,314.858002 482.278778,309.776306 
	C477.876892,304.416016 474.351440,298.675568 472.091370,292.149689 
	C471.569672,290.643341 470.567749,289.695892 469.347595,288.740143 
	C461.956207,282.950378 458.790314,271.746399 461.997711,263.079285 
	C462.055420,262.923340 462.085175,262.721619 462.199127,262.627014 
	C467.683075,258.075500 465.351318,252.344269 464.835419,246.734497 
	C464.150116,239.282761 463.926727,231.797562 465.727844,224.392502 
	C467.734741,216.141418 472.450073,209.745056 479.672485,205.677460 
	C494.713135,197.206619 510.831238,195.401657 527.491882,199.787598 
	C533.629578,201.403336 538.817932,204.718048 541.143005,211.161102 
	C541.741028,212.818222 542.661133,214.086472 544.398010,214.679794 
	C554.280029,218.055557 556.437927,226.353195 557.229675,235.303192 
	C557.804077,241.796432 557.182861,248.283142 555.799011,254.665558 
	C555.436218,256.338959 555.310547,257.813812 556.212952,259.450500 
	C562.159790,270.236633 559.031189,280.699158 550.510071,289.334808 
	C544.322754,295.605377 540.812500,304.538483 536.641235,312.447357 
	C533.640015,318.137634 537.001282,321.995178 543.393372,324.062286 
	C553.373169,327.289581 563.424194,330.309235 573.332275,333.742493 
	C584.911560,337.754883 592.271362,345.496277 594.526489,357.978607 
	C596.094604,366.658417 597.546021,375.328949 598.505737,384.096619 
	C598.751709,386.343597 598.316406,387.864563 596.634888,389.345337 
	C594.245728,391.449158 592.093628,393.953796 590.974976,396.888763 
	C589.297363,401.290009 586.294861,402.082794 581.998169,402.052612 
	C557.499756,401.880463 532.999573,401.963043 508.000000,401.958221 
M538.655640,255.879593 
	C537.487915,251.244980 536.602417,246.482315 532.858582,242.742310 
	C529.367004,244.148239 526.334717,246.217072 522.818481,247.280533 
	C512.263489,250.472855 501.719849,249.921280 491.330170,246.985519 
	C486.853760,245.720657 485.201263,247.249588 484.352905,251.212524 
	C483.344116,255.924561 482.330139,260.643250 481.068207,265.291138 
	C479.839691,269.816101 476.996582,270.941589 472.779083,268.850067 
	C472.066986,268.496948 471.461395,267.780334 470.588867,268.478699 
	C469.674133,275.862366 470.910706,278.688477 476.854248,281.826599 
	C478.933258,282.924316 479.548859,284.768494 479.959564,286.665131 
	C482.427185,298.061310 489.779846,305.670990 499.198486,311.655945 
	C505.793884,315.846893 512.667236,316.117828 519.552063,312.382965 
	C529.683167,306.887085 536.604065,298.727570 539.663574,287.499847 
	C540.430420,284.685699 541.366089,282.452911 544.653381,281.338593 
	C548.826843,279.923889 551.075928,273.650360 549.762146,268.931915 
	C541.797485,271.217712 540.613464,270.355682 539.580139,261.631317 
	C539.384888,259.982880 539.026489,258.353790 538.655640,255.879593 
M579.722839,347.790009 
	C570.047485,339.959412 557.886841,338.707489 546.594360,334.576111 
	C545.979248,336.068848 545.565247,336.949097 545.247925,337.863007 
	C542.300232,346.352020 539.426880,354.867432 536.413147,363.332825 
	C534.373657,369.061676 530.833374,369.824707 526.214294,365.773285 
	C524.534058,364.299561 523.446533,362.089417 521.343201,361.323975 
	C520.183777,361.984863 520.064636,362.846039 520.090576,363.661743 
	C520.371643,372.501862 522.590088,381.079407 523.704041,389.809082 
	C524.014221,392.240051 525.926514,392.767975 528.177917,392.751709 
	C536.838562,392.689240 545.500732,392.660004 554.160583,392.761627 
	C557.304871,392.798523 558.802246,391.645355 558.668335,388.385620 
	C558.552246,385.560150 558.609985,382.720917 558.734863,379.894135 
	C558.845459,377.389923 560.156982,375.828705 562.786987,375.764618 
	C565.600769,375.696014 567.183350,377.145203 567.289368,379.956787 
	C567.402344,382.951141 567.348328,385.951599 567.382996,388.949219 
	C567.403503,390.726135 567.722107,392.532959 569.908875,392.570404 
	C576.500671,392.683319 583.095520,392.611145 590.072144,392.611145 
	C589.552490,382.247192 588.248901,372.728333 586.547058,363.271667 
	C585.572205,357.854340 584.149658,352.520721 579.722839,347.790009 
M430.396729,387.654816 
	C429.676819,391.669220 431.450745,393.126282 435.363281,392.761444 
	C437.673279,392.546021 440.020294,392.740326 442.350525,392.726624 
	C454.160858,392.657257 452.548706,393.742828 452.689941,382.769623 
	C452.700653,381.937531 452.689758,381.103851 452.739258,380.273895 
	C452.897583,377.619263 454.012604,375.797089 456.939026,375.714172 
	C459.733307,375.635010 461.308258,377.193848 461.763214,379.790955 
	C462.076385,381.578796 462.103302,383.429230 462.125946,385.253326 
	C462.218964,392.743378 462.200317,392.743378 469.898224,392.735840 
	C476.056976,392.729797 482.216248,392.774078 488.374298,392.705414 
	C495.130402,392.630096 496.569763,393.941437 497.076996,385.549286 
	C497.246246,382.749603 498.367828,379.992340 498.418976,377.204010 
	C498.510712,372.198822 500.979980,367.248749 499.195068,362.200134 
	C497.436554,361.954437 496.806976,363.076538 495.974304,363.820496 
	C489.344238,369.744202 486.415436,369.092651 483.479889,360.948608 
	C480.829285,353.595306 478.184906,346.238098 475.685730,338.832672 
	C474.727997,335.994720 473.405090,334.595428 470.217377,335.729889 
	C463.169586,338.238190 456.036346,340.507599 448.999542,343.045166 
	C441.546600,345.732849 437.008087,350.976715 435.189575,358.797638 
	C433.039581,368.044220 431.967560,377.451172 430.396729,387.654816 
M509.284332,240.559464 
	C511.263031,240.286682 513.242615,240.019852 515.220337,239.740128 
	C525.191406,238.329834 530.768982,233.083435 532.705200,223.298737 
	C534.603088,213.707687 531.105408,208.998703 521.427368,207.219894 
	C514.235168,205.897995 507.137756,206.343369 500.079132,207.531540 
	C484.413635,210.168518 475.267944,218.543777 473.565491,231.951797 
	C472.754944,238.335434 473.119385,244.784088 474.862427,251.887131 
	C475.675293,249.195679 476.194641,247.160690 476.900757,245.192749 
	C479.927612,236.756653 482.723938,235.258530 491.216003,237.825256 
	C496.844055,239.526321 502.612000,240.113663 509.284332,240.559464 
M522.633545,331.064606 
	C527.316650,328.683350 528.922668,325.113617 526.789124,319.443237 
	C515.901489,325.775330 504.942505,325.847473 494.137634,319.510773 
	C492.375427,326.588867 492.496674,326.941162 497.529755,330.444366 
	C510.256622,339.302734 510.256653,339.302704 522.633545,331.064606 
M498.466980,348.136414 
	C499.350647,346.998474 500.900085,346.306549 500.891327,343.930023 
	C495.593811,340.307373 490.021149,336.496582 484.448486,332.685791 
	C486.021698,340.295074 487.780273,347.556671 491.150085,354.385437 
	C494.515930,353.081421 495.823364,350.346466 498.466980,348.136414 
M526.810181,339.361481 
	C524.355225,341.170624 521.406494,342.395081 519.307434,345.385559 
	C522.952515,348.198792 524.975342,352.333801 529.330994,354.486237 
	C532.395935,347.624207 534.414124,340.918854 536.785461,332.975677 
	C532.925476,335.453339 530.173584,337.219696 526.810181,339.361481 
M508.719757,372.393860 
	C507.916809,377.609985 507.127625,382.828308 506.305969,388.041504 
	C505.771729,391.431091 507.018646,392.835846 510.600830,392.763214 
	C514.198975,392.690338 514.862549,391.141327 514.030029,388.067444 
	C513.731934,386.966888 513.905151,385.743439 513.643860,384.627441 
	C512.375122,379.209015 512.460449,373.468658 509.564209,368.320892 
	C509.343018,369.427673 509.121826,370.534454 508.719757,372.393860 
M547.478882,230.492432 
	C546.613464,227.816895 545.560242,225.296326 541.686768,223.773361 
	C542.254211,228.670486 537.274353,232.187958 540.638306,236.960602 
	C543.439453,240.934723 545.047668,245.465408 546.829651,250.896286 
	C548.175598,243.837814 548.230896,237.596161 547.478882,230.492432 
M512.210938,351.506622 
	C510.777313,349.462616 509.503540,349.717285 507.837677,351.442932 
	C506.254059,353.083344 506.244415,354.554291 507.315918,356.329285 
	C508.293457,357.948517 509.880646,358.110565 511.213959,357.365234 
	C513.329895,356.182465 514.280212,354.349304 512.210938,351.506622 
z"/>
<path fill="#000000" opacity="1.000000" stroke="none" 
	d="
M560.451660,699.119995 
	C560.137695,701.057922 560.236755,702.530457 561.377136,703.728088 
	C569.513916,712.273315 563.740479,730.801208 555.499939,735.693420 
	C553.469910,736.898621 552.546204,738.654785 551.818787,740.781616 
	C549.970703,746.184692 547.219482,751.073120 543.454346,755.437744 
	C538.755859,760.884216 540.601562,767.437256 547.256897,769.650208 
	C559.102112,773.588684 570.952393,777.512451 582.780396,781.502380 
	C593.877075,785.245605 600.340942,793.314514 603.081299,804.353088 
	C606.495483,818.106079 607.040894,832.311340 609.048340,846.289795 
	C609.555542,849.821777 607.647461,851.996765 603.919495,852.205017 
	C602.756348,852.270081 601.587769,852.247375 600.421631,852.247253 
	C542.274292,852.241821 484.126984,852.236145 425.979645,852.225708 
	C417.023712,852.224121 415.773407,851.206055 416.860046,842.510376 
	C418.465149,829.665527 419.376434,816.707642 422.701019,804.106445 
	C425.793823,792.383850 432.831482,784.443970 444.405670,780.674805 
	C456.118195,776.860596 467.856781,773.126587 479.574249,769.327576 
	C485.006866,767.566162 486.993896,761.503540 483.297729,756.868896 
	C478.989655,751.466919 475.335266,745.793213 473.238739,739.179260 
	C472.766235,737.688660 471.736298,736.717468 470.472473,735.787354 
	C462.026428,729.571716 460.004272,720.785278 460.938599,710.975037 
	C461.106476,709.212341 461.571777,706.879639 462.780579,705.921692 
	C467.180969,702.434631 465.760590,698.387573 464.682800,694.189392 
	C462.845551,687.033264 462.075378,679.737061 462.892303,672.396240 
	C464.294861,659.793030 471.179443,650.738892 482.187927,644.984314 
	C496.403687,637.553223 511.573761,635.818481 527.305176,638.668762 
	C528.119629,638.816284 528.947449,639.005371 529.707153,639.322998 
	C538.981323,643.200684 546.606689,649.853882 555.241272,654.849243 
	C562.025696,658.774109 562.750854,667.397827 563.265747,674.989990 
	C563.812439,683.050415 562.143677,690.891968 560.451660,699.119995 
M569.837646,825.569397 
	C573.794067,824.963623 575.366272,826.913086 575.333862,830.648132 
	C575.309265,833.479004 575.404907,836.311951 575.334595,839.141174 
	C575.273438,841.602783 576.258972,842.886047 578.825317,842.870422 
	C584.653748,842.834900 590.482483,842.869995 596.310974,842.840515 
	C598.157227,842.831177 599.697815,842.368896 599.357117,839.987122 
	C597.711365,828.482605 597.161377,816.815430 593.950256,805.543945 
	C591.787415,797.951965 587.318176,792.556458 579.811584,789.948486 
	C571.013733,786.892029 562.094116,784.173218 553.368408,780.928284 
	C549.900085,779.638428 547.925537,780.523254 545.754456,783.178162 
	C536.692810,794.259399 527.466064,805.205627 518.311096,816.210693 
	C513.730774,821.716858 511.880249,821.867371 507.366241,816.457458 
	C497.978821,805.206726 488.695038,793.868835 479.455933,782.495850 
	C477.808807,780.468262 476.294006,779.487732 473.550323,780.446594 
	C464.602386,783.573608 455.549347,786.398926 446.591461,789.498535 
	C439.344910,792.005920 434.610016,797.087585 432.209320,804.360596 
	C429.428741,812.784424 428.606384,821.585266 427.396759,830.292419 
	C426.841248,834.291199 425.391998,838.329712 426.626404,842.836060 
	C433.252563,842.836060 439.725891,842.813232 446.198914,842.847351 
	C448.753479,842.860779 449.774719,841.612610 449.712738,839.140747 
	C449.645935,836.478027 449.715668,833.811951 449.724121,831.147339 
	C449.734070,828.017212 450.594696,825.218933 454.231262,825.172302 
	C457.953430,825.124573 458.652527,828.116028 458.822449,831.118408 
	C458.935181,833.110413 459.167603,835.170227 458.808716,837.099609 
	C457.915558,841.901001 459.930450,842.982178 464.451813,842.959290 
	C496.426880,842.796997 528.403992,842.765625 560.378357,842.989990 
	C565.519653,843.026062 567.057373,841.451721 566.832947,836.443787 
	C566.673584,832.887878 565.088318,828.649841 569.837646,825.569397 
M482.791382,739.673462 
	C486.189697,748.001099 492.137177,754.169678 499.564178,758.929199 
	C507.366364,763.929016 515.692627,764.130920 523.802368,759.973206 
	C534.349060,754.566101 541.597778,746.182434 544.515442,734.471375 
	C545.190063,731.763855 546.064697,729.666687 549.057617,728.534851 
	C554.866089,726.338318 557.855652,718.472778 555.398804,712.168335 
	C553.502380,714.160034 551.534180,716.281067 548.575134,715.004272 
	C545.303955,713.592529 545.893982,710.466125 545.610901,707.674744 
	C544.841736,700.092712 544.976990,692.339905 542.010498,685.125732 
	C539.936707,680.082458 538.325500,679.801758 534.190491,683.311584 
	C522.981689,692.825806 510.096527,698.869202 495.463074,700.163757 
	C487.642303,700.855652 481.755310,702.287476 481.092834,711.615295 
	C480.879272,714.622070 478.711395,716.720032 475.057922,715.878052 
	C472.975525,715.398071 472.451935,712.989868 470.561493,712.254272 
	C468.822510,716.895691 470.072418,725.283203 473.908997,726.677185 
	C480.167419,728.951294 480.862396,734.047119 482.791382,739.673462 
M532.750244,650.689758 
	C530.335083,648.815186 527.618958,647.586365 524.609924,647.089661 
	C510.694000,644.792419 497.426178,646.439270 485.128937,653.739807 
	C476.807587,658.679993 472.024567,665.955872 471.388275,675.642151 
	C470.859344,683.693970 472.554016,691.455200 475.676392,700.602661 
	C475.987396,692.891113 479.886688,691.899048 485.232178,691.901794 
	C503.725159,691.911377 519.880493,686.002319 532.399292,671.865662 
	C534.695618,669.272583 536.979553,668.976196 539.900024,670.435974 
	C544.907288,672.938782 548.402710,676.787476 550.327209,682.009766 
	C551.292053,684.627930 552.017517,687.334167 553.117859,690.853271 
	C554.168274,684.662720 555.183716,679.408325 554.592285,674.080261 
	C553.880859,667.670349 552.859009,660.225281 545.518005,659.029785 
	C539.655823,658.075195 536.336304,655.397034 532.750244,650.689758 
M493.040527,771.230530 
	C492.473633,774.458191 489.692352,775.483093 486.535828,777.015076 
	C495.351593,787.825378 503.871826,798.273315 512.795349,809.215759 
	C522.014648,798.051392 530.548889,787.716675 539.716919,776.614441 
	C532.710205,775.801880 533.285767,770.569641 532.240906,765.778442 
	C519.449585,773.162292 506.721710,773.293518 493.766083,766.305603 
	C493.493622,768.232727 493.333771,769.363281 493.040527,771.230530 
z"/>
<path fill="#000000" opacity="1.000000" stroke="none" 
	d="
M404.959229,455.764709 
	C416.085327,455.708038 416.076782,455.709076 414.788361,444.976196 
	C413.837036,437.051666 412.761810,429.154083 410.780121,421.400299 
	C408.574860,412.771851 403.268585,407.112946 394.834320,404.342957 
	C394.359619,404.187042 393.876038,404.054108 393.411011,403.873352 
	C383.350006,399.963013 374.253632,399.004486 363.196045,403.822968 
	C338.404144,414.626282 313.103363,412.021576 288.807465,400.421906 
	C285.720245,398.947998 283.060272,398.533997 279.824402,399.792816 
	C275.179382,401.599945 270.356537,402.948547 265.614624,404.508301 
	C255.968475,407.681122 250.465439,414.581482 248.606415,424.294495 
	C246.919739,433.107147 245.747208,442.018982 244.391785,450.893768 
	C243.962311,453.705658 244.350998,455.911438 248.086578,455.706543 
	C250.047241,455.598999 252.693298,455.517700 252.550873,458.314667 
	C252.418869,460.906738 251.491669,463.862427 248.421906,464.523468 
	C244.838699,465.295044 241.112961,465.262115 237.522400,464.325409 
	C235.009506,463.669861 234.243896,461.729858 234.561554,459.276245 
	C236.438217,444.780914 237.656525,430.156525 241.779160,416.060364 
	C244.659927,406.210480 251.719025,400.162537 261.099792,396.588989 
	C264.336060,395.356171 267.576477,394.134308 270.779266,392.920990 
	C270.591705,392.221619 270.610962,391.780609 270.417999,391.647736 
	C262.403351,386.128265 262.493958,384.862213 270.555328,379.334869 
	C280.845551,372.279327 281.465118,361.705963 280.279999,350.742584 
	C278.472565,334.022369 276.367401,317.330048 280.681976,300.667969 
	C283.021179,291.634338 286.766541,283.365875 293.911163,277.067291 
	C297.830414,273.612122 302.183380,270.898956 307.658905,270.605988 
	C308.609589,270.555084 309.641724,270.224335 310.457886,269.728973 
	C326.127716,260.217316 341.963654,262.092743 356.897247,270.601440 
	C371.471161,278.905212 375.776855,293.274841 375.106110,309.158356 
	C374.550720,322.310272 372.519775,335.300934 368.130096,347.816345 
	C365.630554,354.942627 362.294617,361.576294 357.470795,367.467163 
	C353.403809,372.433777 356.704224,383.239563 362.788635,385.141602 
	C372.795990,388.269989 382.720398,391.769775 392.890808,394.246460 
	C410.032562,398.420807 418.773499,409.478058 421.126038,426.387878 
	C422.499725,436.261871 423.983826,446.122833 425.180023,456.018463 
	C426.114929,463.752411 424.805115,465.015350 416.834442,465.017548 
	C405.839020,465.020630 394.843506,465.027222 383.848206,464.987610 
	C377.127533,464.963379 376.330688,464.167023 375.216888,455.766449 
	C385.042114,455.766449 394.754395,455.766449 404.959229,455.764709 
M356.750214,352.219421 
	C359.690643,346.211884 361.704834,339.924316 363.140656,333.375031 
	C363.883636,329.985992 363.289154,328.580109 359.796906,327.830933 
	C352.289062,326.220428 345.143097,323.551880 338.366150,319.824371 
	C331.002441,315.774109 324.917114,310.235809 319.006805,303.307831 
	C315.497375,311.988617 311.712250,319.810883 304.684235,324.802948 
	C299.486938,328.494598 298.846954,332.377563 300.370056,337.944672 
	C303.816742,350.543060 308.259491,362.420410 320.016449,369.830383 
	C326.687012,374.034546 333.475220,374.038727 340.351196,370.245605 
	C347.635223,366.227386 352.413025,359.918274 356.750214,352.219421 
M321.210205,289.235138 
	C329.332642,305.976257 343.399353,314.690979 360.922668,318.921875 
	C364.660126,319.824249 365.776093,318.606018 365.730499,315.104950 
	C365.680725,311.281952 366.054626,307.448181 365.903931,303.632568 
	C365.329071,289.075073 358.256927,279.255554 345.367249,274.854279 
	C331.320099,270.057800 313.325165,273.896698 305.247742,283.403778 
	C301.339264,288.003998 299.257874,293.517761 298.666504,299.323883 
	C298.062012,305.259094 296.169983,311.290527 298.107574,317.684418 
	C299.126709,317.206024 299.799316,317.043060 300.262909,316.639771 
	C301.136536,315.879700 301.948120,315.029144 302.683594,314.132599 
	C308.228607,307.373138 311.412567,299.679474 311.890259,290.896759 
	C312.027161,288.379578 312.223450,285.704895 315.269653,284.877563 
	C318.389709,284.030273 319.809357,286.101929 321.210205,289.235138 
M358.638397,393.469055 
	C349.284851,392.377747 349.311371,384.046875 346.928741,377.134674 
	C335.518707,384.457794 324.532440,383.687805 313.809998,377.010895 
	C308.848572,388.883606 308.848572,388.883606 299.490692,394.584381 
	C314.719971,404.052490 348.289886,403.616089 361.095001,394.446381 
	C360.468384,394.187195 359.857086,393.934326 358.638397,393.469055 
M283.968506,379.247253 
	C282.703033,380.875916 281.437561,382.504578 279.990295,384.367218 
	C285.212097,386.254303 290.003204,386.047699 294.765656,385.140106 
	C303.578949,383.460480 307.795074,372.773499 302.660309,365.259827 
	C297.916931,358.318878 294.487946,350.825409 292.529510,342.621490 
	C289.765503,331.043243 288.188080,319.347900 288.598419,307.411560 
	C286.383484,321.194855 287.387756,334.882538 288.930084,348.644958 
	C290.080170,358.907593 290.323669,369.320465 283.968506,379.247253 
z"/>
<path fill="#000000" opacity="1.000000" stroke="none" 
	d="
M724.190247,378.682190 
	C732.994934,381.409637 741.317444,384.430725 749.859497,386.578491 
	C768.117798,391.169342 777.025635,403.306976 779.293274,421.319519 
	C780.476135,430.715424 781.912903,440.079132 783.153137,449.468231 
	C783.368896,451.101746 783.410706,452.831146 783.121399,454.442352 
	C782.619446,457.237152 780.457947,458.102844 777.908752,458.013245 
	C775.318359,457.922180 774.631958,456.201630 774.704773,453.902069 
	C775.126099,440.596985 770.744202,428.025055 768.642761,415.108704 
	C767.287109,406.776215 762.112671,401.032562 754.201294,397.951874 
	C745.704895,394.643372 737.022644,391.920349 728.487854,389.550934 
	C726.729248,391.405396 727.471924,393.157806 727.263794,394.745117 
	C726.992615,396.812775 728.289673,399.828857 724.223083,399.576019 
	C721.076172,399.380310 718.155640,399.279999 718.514832,394.743530 
	C718.695862,392.457764 718.078125,390.113678 717.876282,387.791199 
	C717.689026,385.637634 716.019714,385.221710 714.408264,384.778992 
	C712.429443,384.235352 711.740051,385.594421 711.230103,387.101654 
	C710.537170,389.149902 709.865845,391.205597 709.204712,393.264404 
	C706.868835,400.539215 706.662781,400.679871 697.853027,400.629486 
	C698.402649,390.677673 706.927124,382.187073 703.145691,370.961548 
	C692.154297,376.810638 681.025024,377.300262 669.938843,370.981934 
	C668.448608,375.644806 668.549622,379.713928 670.250427,383.925842 
	C673.054260,390.869385 675.191345,398.097046 678.251099,404.917145 
	C680.333252,409.558136 677.450867,411.224609 674.501221,412.506226 
	C670.800415,414.114197 670.655518,410.273010 669.858826,408.295563 
	C667.122253,401.503296 664.689392,394.588623 662.140625,387.720673 
	C661.504211,386.005585 661.083862,383.961945 658.507690,384.588287 
	C656.123230,385.168030 654.108948,386.087891 654.330322,389.202393 
	C654.672485,394.016785 654.898560,398.841583 655.061035,403.665771 
	C655.147156,406.221863 656.962585,406.890717 658.850220,407.682648 
	C668.020081,411.529449 669.075684,414.191803 664.573608,423.074890 
	C663.411072,425.368652 662.375305,427.903015 659.965088,429.754028 
	C656.818115,427.666321 655.413757,424.973328 656.612915,421.326813 
	C657.672974,418.103180 656.580444,416.160339 653.408752,415.427429 
	C646.939148,413.932404 645.199768,409.665375 645.729980,403.527069 
	C646.111938,399.104614 645.804382,394.622589 645.804382,388.956482 
	C633.814392,393.221222 621.954529,394.803192 612.216064,401.950256 
	C607.728149,405.243927 606.001831,410.502747 604.710449,415.734863 
	C602.316101,425.435455 601.091492,435.336487 599.729309,445.219116 
	C599.171082,449.268921 601.810120,448.668793 604.039551,448.674744 
	C619.701477,448.716553 635.366333,448.861542 651.024048,448.601685 
	C655.809692,448.522278 656.690186,450.619202 656.322998,454.622833 
	C656.124695,456.784821 655.080017,457.479279 653.103333,457.474121 
	C633.609375,457.423218 614.115295,457.405853 594.621460,457.347961 
	C591.211365,457.337830 589.638855,455.181915 590.025452,452.139099 
	C591.845703,437.811554 592.888855,423.332611 597.018799,409.400360 
	C599.955383,399.493896 606.475952,392.562347 616.191284,389.122314 
	C628.570984,384.738892 641.077759,380.705536 653.588684,376.705566 
	C660.260437,374.572510 663.015625,366.588470 658.544800,361.193390 
	C654.313354,356.087189 651.422363,350.347260 649.824646,343.966095 
	C649.356995,342.098389 648.349304,340.687164 647.309998,339.172180 
	C642.134888,331.628998 639.824341,323.605560 643.723694,314.735870 
	C644.380615,313.241608 644.098633,311.855225 643.996033,310.359283 
	C643.505798,303.211029 642.730225,295.923492 644.169006,288.932556 
	C647.567505,272.420349 659.337097,263.748444 674.478638,258.964569 
	C683.768188,256.029633 693.240295,256.570465 702.559387,259.127350 
	C716.652649,262.994141 727.942322,276.785828 729.361145,291.399597 
	C729.797180,295.890137 730.002686,300.304352 729.464111,304.823944 
	C728.923279,309.362610 728.647644,313.875519 730.382629,318.479279 
	C732.433044,323.920105 730.960205,329.674652 728.230286,334.375854 
	C724.944763,340.033997 723.051880,346.218506 720.080627,351.945038 
	C718.933594,354.155762 717.945740,356.731628 716.140747,358.263947 
	C711.280640,362.389526 712.281311,367.326141 713.198975,372.490662 
	C713.543823,374.431030 714.503906,375.365997 716.271057,375.922882 
	C718.810120,376.723114 721.297913,377.686371 724.190247,378.682190 
M710.709045,350.155792 
	C714.461243,344.116272 715.321838,336.758911 719.829102,330.962250 
	C721.768188,328.468414 722.938416,324.640625 721.097351,321.499939 
	C719.113403,318.115326 719.418884,314.700684 719.987305,311.348450 
	C720.972961,305.536102 721.208862,299.660736 720.527954,293.936188 
	C719.201599,282.786438 714.380371,273.283844 703.413940,268.867126 
	C690.344238,263.603333 677.410034,265.292114 665.733276,272.935638 
	C658.829590,277.454712 653.824951,283.688385 652.772339,292.661011 
	C651.844604,300.569122 653.025330,308.251343 653.629761,316.017822 
	C653.748291,317.540741 654.192200,319.149719 653.007263,320.282227 
	C648.296021,324.785187 651.324829,329.023071 653.886658,332.656921 
	C655.745605,335.293762 657.281128,337.843475 658.127747,340.924133 
	C660.508484,349.587219 665.365417,356.573273 672.704834,361.768311 
	C679.055359,366.263306 685.923401,367.951447 693.433105,365.032227 
	C700.672852,362.217957 706.081482,357.172943 710.709045,350.155792 
z"/>
<path fill="#000000" opacity="1.000000" stroke="none" 
	d="
M681.163696,643.169495 
	C682.363525,641.135254 683.365479,639.406372 684.357239,637.671692 
	C687.601746,631.997192 688.887512,631.561584 695.602539,633.873840 
	C693.657837,665.532593 607.612366,736.881836 570.922058,737.259399 
	C571.440308,730.717468 573.410034,728.168579 579.159058,726.153992 
	C622.995178,710.792664 656.707642,682.951965 681.163696,643.169495 
z"/>
<path fill="#000000" opacity="1.000000" stroke="none" 
	d="
M446.903564,725.959900 
	C453.115997,727.057373 453.447571,732.248535 455.444000,736.320068 
	C433.213287,741.237549 351.303864,681.987183 344.664551,656.251526 
	C349.637756,655.165405 353.459412,654.824951 357.419739,659.989014 
	C380.756927,690.419495 410.076355,713.026733 446.903564,725.959900 
z"/>
<path fill="#000000" opacity="1.000000" stroke="none" 
	d="
M392.538696,366.565948 
	C388.555878,369.617371 384.827698,372.412781 381.186401,375.317139 
	C378.953308,377.098267 376.659149,377.762482 374.544434,375.496826 
	C372.295013,373.086884 372.896820,370.449280 375.159058,368.446899 
	C386.840912,358.107117 399.899231,349.871368 414.135223,343.523438 
	C417.129364,342.188293 418.707520,343.077881 417.809784,346.647949 
	C416.893707,350.290924 415.549652,353.283051 411.616333,355.009796 
	C404.902069,357.957397 398.901764,362.252747 392.538696,366.565948 
z"/>
<path fill="#000000" opacity="1.000000" stroke="none" 
	d="
M643.200562,362.822784 
	C643.022949,368.130829 638.966248,370.587708 635.029297,367.897583 
	C626.055908,361.766022 616.539368,356.644684 606.769958,351.942139 
	C602.410217,349.843536 602.501160,345.253784 601.253235,340.987793 
	C616.652466,345.368561 630.249084,353.119965 643.200562,362.822784 
z"/>
</svg>